<?xml version="1.0" encoding="UTF-8"?>
<svg id="_レイヤー_1" data-name="レイヤー 1" xmlns="http://www.w3.org/2000/svg" viewBox="0 0 217.25 200">
  <defs>
    <style>
      .cls-1 {
        fill: #fff;
      }

      .cls-2 {
        fill: #ff7842;
      }
    </style>
  </defs>
  <rect class="cls-2" x="14.36" y="4.26" width="188.01" height="188.01" rx="26" ry="26"/>
  <path class="cls-1" d="M182.85,83.6v-20.97c.24-1.25-.82-3.16-2.75-3.89-.35-.17-.75-.32-1.24-.4h-31.71c5.03-3.58,9.95-6.84,12.84-12.58,5.37-10.66-.71-24.87-12.23-26.82-13.61-2.96-27.73,14.95-36.69,24.67-.69.65-1.38,1.25-2.06,1.82-1.27-1.05-2.56-2.24-3.87-3.54-4.87-5.4-10.99-12.47-17.61-17.37-4.56-3.5-9.44-5.93-14.76-5.92-13.21.04-20.64,15.61-14.87,27.05,2.92,5.8,7.91,9.07,13,12.69h-31.76c-2.78.17-4.4,2.66-4.11,4.18v21.2c-.13,4.97-.21,9.93-.09,14.75.01.52.04,1.01.09,1.46v1.22c.62,2.69,1.85,3.7,3.49,4.06,1.37.41,3.12.42,5.25.3v53.98c-.06,2.37-.1,4.75.15,7.11.17,1.66.44,3.78,1.52,5.12.19.23.39.45.59.67,1.55,1.69,4.04,2.94,6.19,3.75,0,0,112.42,0,112.48,0,1.5,0,2.94-.66,4.22-1.38.82-.47,1.7-.95,2.44-1.55.86-.7,1.29-1.52,1.71-2.51,1.11-2.65,1.21-6.7,1-12.85v-52.4c4.24,0,7.62.93,8.8-4.18v-1.45c.05-.45.08-.93.09-1.46.12-4.82.04-9.78-.09-14.75ZM69.4,39.1c-1.26-3.59-.12-8.24,4.15-8.26,5.37.83,14.72,10.15,20.91,16.61,1.81,1.97,3.34,3.68,4.39,4.82-1.25.1-2.74.05-4.37-.14-8.92-1.27-22.88-6.77-25.08-13.02ZM101.35,163.37h-44.22l-.71-.72v-57.22l9.66-.11,35.27.27v57.77ZM101.35,92.61h-53.1v-21.49h53.1v21.49ZM118.99,52.19c5.01-5.12,19.4-21.29,26.06-21.31.26,0,.51.02.75.06,3.05.97,3.78,4.91,2.67,8.04-2.62,7.46-21.95,13.84-29.54,13.26.02-.02.04-.04.05-.06ZM161.46,162.54l-.83.83h-44.1v-57.66l44.93-.28v57.1ZM169.63,92.61h-53.1v-21.49h53.1v21.49Z"/>
</svg>