<?xml version="1.0" encoding="UTF-8"?>
<svg id="_レイヤー_1" data-name=" レイヤー 1" xmlns="http://www.w3.org/2000/svg" viewBox="0 0 591.54 200">
  <defs>
    <style>
      .cls-1 {
        fill: #fff;
      }
    </style>
  </defs>
  <path class="cls-1" d="M37.54,35.87c-.4.4-.83.85-1.28,1.34-.45.49-.84.92-1.17,1.3-.68.78-1.48,1.64-2.4,2.57-.92.93-1.91,1.87-2.98,2.81-1.07.94-2.2,1.82-3.38,2.62-1.36.96-2.86,1.86-4.49,2.7-1.64.84-3.38,1.62-5.23,2.34-1.85.72-3.82,1.39-5.91,2.02l-2.3-3.51c3.62-.83,6.67-1.83,9.14-3,2.47-1.17,4.54-2.3,6.23-3.38,1.06-.68,2.04-1.4,2.96-2.17.92-.77,1.74-1.52,2.45-2.25.72-.73,1.28-1.37,1.68-1.92h-14.8c-.43,0-.95,0-1.57.02-.62.01-1.21.03-1.77.06s-1.04.05-1.42.07v-3.93c.65.07,1.43.13,2.34.17.91.04,1.69.06,2.34.06h16.38c.5,0,.99-.03,1.45-.08s.87-.13,1.23-.23l2.49,2.38ZM26.78,44.41v11.67c0,.45,0,.95.02,1.49.01.54.04,1.07.08,1.59.04.52.07.98.09,1.38h-4.3c.05-.38.09-.82.13-1.34.04-.52.07-1.05.09-1.6.03-.55.04-1.06.04-1.51v-10.08l3.85-1.59ZM27.08,28.17c-.05.43-.1.96-.15,1.6-.05.64-.08,1.24-.08,1.79v3.93h-3.85v-3.93c0-.58-.02-1.18-.06-1.81-.04-.63-.09-1.16-.17-1.59h4.3ZM38.78,54.03c-1.08-.86-2.1-1.6-3.06-2.25-.96-.64-1.91-1.26-2.87-1.85-.96-.59-2-1.19-3.13-1.79l2.45-2.83c1.18.6,2.23,1.17,3.15,1.7s1.84,1.08,2.78,1.66c.93.58,1.99,1.27,3.17,2.08l-2.49,3.29Z"/>
  <path class="cls-1" d="M46.6,38.59c.23.43.5,1.01.81,1.76.31.74.64,1.54.98,2.4.34.86.66,1.67.96,2.45.3.78.54,1.43.72,1.96l-3.59,1.32c-.15-.48-.38-1.13-.68-1.94s-.62-1.67-.96-2.55c-.34-.88-.67-1.69-.98-2.44-.31-.74-.59-1.3-.81-1.68l3.55-1.28ZM69.17,39.05c-.18.48-.32.89-.43,1.25s-.21.68-.28.98c-.5,2.01-1.18,3.99-2.02,5.93-.84,1.94-1.93,3.76-3.27,5.47-1.74,2.22-3.71,4.08-5.91,5.61-2.2,1.52-4.37,2.7-6.51,3.53l-3.13-3.21c1.41-.4,2.87-.98,4.38-1.74s2.96-1.66,4.36-2.72c1.4-1.06,2.61-2.23,3.64-3.51.86-1.08,1.64-2.32,2.34-3.72.7-1.4,1.28-2.88,1.74-4.46.45-1.57.77-3.15.94-4.74l4.15,1.32ZM55.39,36.63c.18.38.4.94.68,1.68.28.74.57,1.54.89,2.38.31.84.6,1.64.87,2.4.26.76.46,1.34.59,1.74l-3.55,1.28c-.1-.45-.28-1.05-.53-1.79-.25-.74-.53-1.52-.83-2.34-.3-.82-.6-1.6-.89-2.36-.29-.75-.55-1.36-.77-1.81l3.55-1.17Z"/>
  <path class="cls-1" d="M79.33,55.2v-21.82c0-.6-.03-1.3-.08-2.1-.05-.79-.14-1.5-.26-2.13h4.64c-.05.6-.11,1.3-.17,2.08-.06.78-.09,1.5-.09,2.15v21.82c0,.4.01.89.04,1.47s.06,1.16.11,1.76c.05.59.1,1.13.15,1.6h-4.64c.1-.65.18-1.44.23-2.36.05-.92.08-1.74.08-2.47ZM82.5,39.01c1.23.35,2.62.79,4.15,1.3,1.53.52,3.08,1.07,4.64,1.66,1.56.59,3.05,1.18,4.45,1.76,1.41.58,2.61,1.11,3.59,1.59l-1.7,4.12c-1.06-.58-2.25-1.16-3.57-1.76-1.32-.59-2.67-1.16-4.06-1.72-1.38-.55-2.72-1.06-4.02-1.51s-2.46-.84-3.49-1.17v-4.27Z"/>
  <path class="cls-1" d="M108.06,28.97l3.02.49c-.18,1.69-.4,3.36-.66,5.02-.26,1.66-.57,3.22-.93,4.68-.35,1.46-.77,2.76-1.25,3.89-.2-.15-.46-.33-.77-.53-.31-.2-.64-.4-.98-.6-.34-.2-.62-.36-.85-.49.45-1.03.83-2.23,1.13-3.59.3-1.36.56-2.79.77-4.3.21-1.51.38-3.03.51-4.57ZM105.94,47.62c1.21-.3,2.59-.67,4.13-1.1,1.55-.43,3.18-.89,4.91-1.4,1.72-.5,3.45-1.01,5.19-1.51l.45,3.17c-2.37.73-4.77,1.47-7.21,2.23-2.44.75-4.63,1.43-6.57,2.04l-.91-3.44ZM108.66,34.36h11.06v3.4h-11.7l.64-3.4ZM112.85,26.81h3.32v35.04h-3.32V26.81ZM124.59,26.81l3.25.6c-.45,2.09-1.03,4.1-1.72,6.04-.69,1.94-1.49,3.74-2.38,5.42-.89,1.67-1.86,3.14-2.89,4.4-.2-.18-.47-.4-.79-.66-.33-.26-.67-.52-1.02-.77-.35-.25-.67-.45-.94-.6,1.06-1.11,1.99-2.43,2.81-3.96.82-1.53,1.53-3.19,2.15-4.96.62-1.77,1.13-3.61,1.53-5.49ZM128.29,33.99l2.64,1.32c-.53,2.19-1.25,4.42-2.17,6.7-.92,2.28-1.98,4.4-3.19,6.36-1.21,1.96-2.52,3.59-3.93,4.87-.33-.33-.75-.69-1.26-1.08-.52-.39-1.03-.71-1.53-.96,1.11-.88,2.15-1.96,3.13-3.23.98-1.27,1.87-2.68,2.68-4.23.81-1.55,1.51-3.16,2.11-4.83s1.11-3.32,1.51-4.93ZM133.62,34.33l2.79,1.28c-.45,2.52-1.06,5.01-1.81,7.47-.76,2.47-1.64,4.83-2.66,7.1s-2.18,4.33-3.47,6.19c-1.3,1.86-2.75,3.44-4.36,4.72-.33-.33-.77-.7-1.34-1.11s-1.1-.75-1.6-1c1.66-1.18,3.16-2.66,4.49-4.44s2.51-3.76,3.53-5.95c1.02-2.19,1.9-4.5,2.64-6.93.74-2.43,1.34-4.88,1.79-7.34ZM124.93,32.93h14.04v3.32h-15.59l1.55-3.32ZM137.47,32.93h3.4v1.08c0,.26-.01.49-.04.66-.2,4.28-.41,7.9-.62,10.87-.21,2.97-.43,5.41-.66,7.32-.23,1.91-.49,3.41-.77,4.49-.29,1.08-.62,1.85-1,2.3-.4.58-.82.98-1.25,1.21-.43.23-.94.39-1.55.49-.5.08-1.14.12-1.91.13-.77.01-1.57,0-2.4-.06-.03-.53-.12-1.13-.28-1.79-.16-.67-.4-1.24-.7-1.72.81.08,1.53.12,2.19.13s1.16.02,1.51.02c.33,0,.59-.04.79-.13.2-.09.42-.26.64-.51.28-.35.54-1.02.79-2,.25-.98.48-2.39.7-4.23.21-1.84.42-4.18.6-7.04.19-2.86.37-6.32.55-10.4v-.83Z"/>
  <path class="cls-1" d="M147.55,52.86l3.28.79c-.48,1.56-1.12,3.08-1.93,4.57-.81,1.48-1.67,2.73-2.61,3.74-.2-.2-.47-.42-.81-.66-.34-.24-.69-.48-1.06-.74-.37-.25-.69-.44-.96-.57.93-.88,1.74-1.96,2.44-3.23.69-1.27,1.24-2.57,1.64-3.91ZM145.59,28.29h11.82v24.01h-11.82v-24.01ZM148.79,31.15v4.23h5.29v-4.23h-5.29ZM148.79,38.1v4.27h5.29v-4.27h-5.29ZM148.79,45.09v4.3h5.29v-4.3h-5.29ZM152.27,54.03l2.79-1.21c.58.73,1.14,1.55,1.68,2.45.54.91.96,1.7,1.26,2.38l-2.95,1.43c-.25-.68-.64-1.5-1.17-2.45-.53-.96-1.07-1.82-1.62-2.61ZM160.31,28.74h3.28v13.97c0,1.49-.05,3.07-.15,4.76-.1,1.69-.29,3.39-.57,5.12-.28,1.72-.69,3.39-1.23,5-.54,1.61-1.26,3.07-2.17,4.38-.2-.2-.48-.42-.83-.66-.35-.24-.71-.47-1.08-.7-.37-.23-.69-.4-.96-.53,1.13-1.64,1.96-3.45,2.49-5.46.53-2,.86-4.03,1-6.1.14-2.06.21-4,.21-5.81v-13.97ZM161.37,28.74h16.57v3.25h-16.57v-3.25ZM174.13,38.25h.64l.6-.08,2.11.49c-.53,4.1-1.42,7.66-2.66,10.66-1.25,3.01-2.81,5.53-4.7,7.55s-4.06,3.67-6.53,4.93c-.15-.3-.34-.64-.57-1-.23-.37-.47-.72-.72-1.08-.25-.35-.52-.63-.79-.83,2.21-.96,4.18-2.35,5.91-4.19,1.72-1.84,3.16-4.08,4.32-6.74,1.16-2.65,1.95-5.69,2.38-9.12v-.6ZM162.27,38.25h12.8v3.17h-12.8v-3.17ZM166.2,40.44c.63,2.89,1.51,5.56,2.64,7.98,1.13,2.43,2.56,4.56,4.28,6.38,1.72,1.82,3.77,3.25,6.14,4.28-.25.2-.53.47-.83.81-.3.34-.59.68-.85,1.04-.26.35-.48.68-.66.98-2.47-1.23-4.59-2.86-6.36-4.87s-3.25-4.37-4.44-7.06c-1.18-2.69-2.14-5.66-2.87-8.91l2.94-.64Z"/>
  <path class="cls-1" d="M201.99,32.85c-.25,1.94-.57,3.98-.96,6.13-.39,2.15-.91,4.29-1.57,6.4-.75,2.57-1.6,4.74-2.55,6.51-.94,1.77-1.97,3.13-3.08,4.06-1.11.93-2.28,1.4-3.51,1.4s-2.43-.43-3.51-1.3-1.96-2.09-2.64-3.66c-.68-1.57-1.02-3.4-1.02-5.49s.43-4.11,1.3-6c.87-1.89,2.07-3.56,3.61-5.02,1.53-1.46,3.32-2.61,5.36-3.44,2.04-.83,4.24-1.25,6.61-1.25s4.31.36,6.13,1.1c1.82.73,3.39,1.74,4.68,3.04s2.28,2.81,2.96,4.55c.68,1.74,1.02,3.59,1.02,5.55,0,2.64-.55,4.99-1.64,7.04-1.09,2.05-2.7,3.72-4.81,5.02s-4.71,2.17-7.78,2.62l-2.23-3.55c.65-.08,1.26-.16,1.81-.25.55-.09,1.07-.18,1.55-.28,1.21-.28,2.36-.7,3.45-1.28,1.09-.58,2.07-1.31,2.93-2.21.86-.89,1.53-1.94,2.02-3.15.49-1.21.74-2.57.74-4.08s-.24-2.91-.72-4.21c-.48-1.3-1.18-2.42-2.11-3.38-.93-.96-2.08-1.7-3.44-2.25-1.36-.54-2.89-.81-4.61-.81-2.06,0-3.9.36-5.51,1.09-1.61.73-2.98,1.69-4.1,2.89-1.12,1.2-1.97,2.49-2.55,3.87-.58,1.38-.87,2.72-.87,4,0,1.43.18,2.62.53,3.57.35.94.79,1.64,1.32,2.09.53.45,1.07.68,1.62.68s1.12-.28,1.7-.85c.58-.57,1.16-1.47,1.76-2.7s1.18-2.81,1.76-4.72c.58-1.81,1.06-3.74,1.45-5.8.39-2.05.67-4.06.85-6.02l4.04.08Z"/>
  <path class="cls-1" d="M224.79,26.59l3.32.87c-.48,1.23-1.05,2.45-1.72,3.66-.67,1.21-1.38,2.34-2.15,3.4-.77,1.06-1.54,1.99-2.32,2.79-.2-.2-.49-.42-.85-.66-.37-.24-.74-.48-1.11-.72-.38-.24-.7-.43-.98-.59,1.21-1.08,2.33-2.4,3.36-3.96,1.03-1.56,1.85-3.16,2.45-4.79ZM234.27,50.18l2.76,1.28c-.86,1.06-1.86,2.08-3.02,3.06-1.16.98-2.4,1.9-3.74,2.76-1.33.86-2.71,1.63-4.12,2.32-1.41.69-2.81,1.27-4.19,1.72-.18-.28-.4-.59-.66-.94-.26-.35-.54-.7-.81-1.04s-.55-.61-.83-.81c1.38-.38,2.77-.86,4.15-1.45,1.38-.59,2.73-1.25,4.04-1.96,1.31-.72,2.51-1.49,3.61-2.32s2.03-1.7,2.81-2.61ZM224.53,43.31h3.59c-.23,1.11-.49,2.27-.77,3.49-.29,1.22-.57,2.4-.85,3.53-.28,1.13-.55,2.14-.83,3.02l-3.55-.49c.28-.86.57-1.82.87-2.91.3-1.08.59-2.2.85-3.36.26-1.16.5-2.25.7-3.28ZM226.45,43.31h20.69v-3.17h-24.24v-2.98h27.75v9.1h-24.2v-2.94ZM224.26,29.95h12.08v2.79h-12.08v-2.79ZM225.47,49.2h24.69v3.02h-25.6l.91-3.02ZM226.07,32.1l2.91-1.13c.48.73.94,1.56,1.4,2.49s.77,1.72.94,2.38l-3.06,1.28c-.18-.65-.47-1.45-.89-2.4-.42-.94-.85-1.82-1.3-2.62ZM239.89,26.59l3.4.83c-.7,1.89-1.65,3.68-2.83,5.38-1.18,1.7-2.4,3.13-3.66,4.28-.2-.2-.48-.43-.83-.7-.35-.26-.72-.52-1.09-.75-.38-.24-.72-.43-1.02-.59,1.31-1.03,2.49-2.29,3.55-3.78,1.06-1.48,1.89-3.05,2.49-4.68ZM235.06,37.91h3.51v23.94h-3.51v-23.94ZM239.02,29.95h14.99v2.79h-14.99v-2.79ZM242.16,32.1l2.95-1.09c.6.73,1.22,1.55,1.85,2.47.63.92,1.09,1.72,1.4,2.4l-3.1,1.25c-.25-.7-.67-1.53-1.26-2.47-.59-.94-1.2-1.79-1.83-2.55ZM249.26,49.2h3.59c-.03.65-.05,1.11-.08,1.36-.23,2.57-.48,4.51-.76,5.81-.28,1.31-.67,2.22-1.17,2.72-.35.38-.74.64-1.15.79-.42.15-.9.25-1.45.3-.5.05-1.19.08-2.06.08s-1.78-.03-2.74-.08c-.03-.5-.13-1.06-.3-1.68-.18-.62-.4-1.14-.68-1.57.86.08,1.67.13,2.44.15.77.03,1.33.04,1.68.04.3,0,.55-.02.75-.06.2-.04.39-.13.57-.28.3-.3.56-.99.77-2.06.21-1.07.41-2.76.59-5.08v-.45Z"/>
  <path class="cls-1" d="M257.33,41.99h34.73v3.93h-34.73v-3.93Z"/>
  <path class="cls-1" d="M295.5,38.4h33.83v3.36h-33.83v-3.36ZM302.9,42.63l3.7,1.17c-.65,1.08-1.42,2.16-2.28,3.25-.87,1.08-1.77,2.1-2.7,3.04-.93.94-1.86,1.77-2.79,2.47-.23-.23-.54-.48-.93-.77s-.79-.57-1.19-.85c-.4-.28-.77-.49-1.09-.64,1.41-.96,2.77-2.12,4.08-3.47,1.31-1.36,2.38-2.76,3.21-4.19ZM319.7,47.99l3.66,1.09c-.86,2.06-1.97,3.84-3.34,5.34-1.37,1.5-3.01,2.75-4.93,3.76s-4.1,1.83-6.55,2.47c-2.45.64-5.22,1.14-8.29,1.49-.13-.58-.35-1.19-.68-1.83-.33-.64-.67-1.18-1.02-1.6,3.75-.33,7.03-.87,9.84-1.64,2.81-.77,5.15-1.88,7.02-3.34,1.87-1.46,3.3-3.37,4.28-5.74ZM300.9,29.61h3.59v10.08h-3.59v-10.08ZM310.64,41.42h3.59v8.34c0,.86-.11,1.53-.34,2.02-.23.49-.68.87-1.36,1.15-.65.23-1.47.37-2.45.42-.98.05-2.19.08-3.62.08-.05-.48-.19-1.02-.42-1.62s-.45-1.14-.68-1.62c.65.03,1.3.04,1.93.06.63.01,1.18.02,1.66.02h.98c.28-.03.47-.08.57-.15.1-.08.15-.21.15-.42v-8.27ZM310.64,26.81h3.66v13.4h-3.66v-13.4ZM312.79,30.85h12.87v3.25h-12.87v-3.25ZM318.95,44.37l2.87-1.81c.96.75,1.92,1.6,2.89,2.55.97.94,1.87,1.89,2.7,2.83.83.94,1.48,1.81,1.96,2.59l-3.1,2.08c-.45-.78-1.08-1.65-1.87-2.62s-1.67-1.94-2.62-2.93c-.96-.98-1.9-1.87-2.83-2.68Z"/>
  <path class="cls-1" d="M338.58,49.39c1.11,0,2.1.27,2.98.81.88.54,1.59,1.25,2.11,2.13s.79,1.88.79,2.98-.26,2.07-.79,2.96c-.53.89-1.23,1.6-2.11,2.13s-1.88.79-2.98.79-2.07-.26-2.96-.79-1.61-1.24-2.15-2.13c-.54-.89-.81-1.88-.81-2.96s.27-2.1.81-2.98,1.26-1.59,2.15-2.13c.89-.54,1.88-.81,2.96-.81ZM338.58,58.94c1.01,0,1.86-.35,2.57-1.06.7-.7,1.06-1.57,1.06-2.61,0-.65-.16-1.25-.47-1.79-.32-.54-.75-.98-1.3-1.3-.55-.33-1.17-.49-1.85-.49s-1.26.16-1.81.49c-.55.33-.99.76-1.32,1.3s-.49,1.15-.49,1.83.16,1.26.49,1.83.76,1.01,1.3,1.32c.54.31,1.15.47,1.83.47Z"/>
  <path class="cls-1" d="M10,84.31c.63.03,1.24.04,1.83.04s1.2-.01,1.83-.04c.6-.02,1.35-.07,2.23-.13.88-.06,1.83-.14,2.85-.23,1.02-.09,2.04-.18,3.06-.26,1.02-.09,1.96-.16,2.81-.21.86-.05,1.55-.08,2.08-.08,1.23,0,2.33.2,3.28.59.96.39,1.72,1.08,2.28,2.06.57.98.85,2.35.85,4.12,0,1.49-.06,3.09-.19,4.81-.13,1.72-.35,3.37-.66,4.95-.31,1.57-.75,2.89-1.3,3.95-.6,1.31-1.39,2.18-2.36,2.62-.97.44-2.12.66-3.45.66-.7,0-1.47-.05-2.3-.15s-1.56-.23-2.19-.38l-.6-3.93c.5.13,1.05.25,1.64.38.59.13,1.15.22,1.68.28.53.06.96.1,1.28.1.68,0,1.28-.12,1.79-.36.52-.24.95-.72,1.3-1.45.38-.78.69-1.79.94-3.02.25-1.23.44-2.55.57-3.96.13-1.41.19-2.77.19-4.08,0-1.11-.16-1.93-.47-2.45-.32-.53-.76-.89-1.34-1.08-.58-.19-1.26-.28-2.04-.28-.6,0-1.43.04-2.47.13-1.04.09-2.16.2-3.34.32-1.18.13-2.28.25-3.28.36-1.01.11-1.8.21-2.38.28-.48.05-1.09.13-1.83.23-.74.1-1.38.2-1.91.3l-.38-4.08ZM24.35,76.27c-.08.38-.16.81-.26,1.28-.1.48-.19.92-.26,1.32-.1.5-.22,1.13-.36,1.87-.14.74-.28,1.51-.43,2.3-.15.79-.31,1.55-.49,2.28-.25,1.06-.57,2.28-.94,3.66-.38,1.38-.81,2.86-1.3,4.44-.49,1.57-1.04,3.17-1.66,4.79-.62,1.62-1.28,3.21-2,4.76-.72,1.55-1.49,2.99-2.32,4.32l-3.89-1.55c.88-1.18,1.7-2.5,2.45-3.94.75-1.45,1.45-2.94,2.08-4.49.63-1.55,1.2-3.08,1.7-4.59.5-1.51.94-2.91,1.3-4.21.36-1.3.65-2.41.85-3.34.35-1.61.64-3.22.85-4.83.21-1.61.31-3.12.28-4.53l4.42.45ZM37.37,80.08c.58.78,1.2,1.76,1.85,2.94.65,1.18,1.3,2.44,1.94,3.78.64,1.34,1.22,2.62,1.74,3.85.52,1.23.92,2.29,1.23,3.17l-3.74,1.74c-.25-1.01-.61-2.15-1.08-3.42-.47-1.27-.99-2.56-1.59-3.87-.59-1.31-1.22-2.55-1.89-3.72-.67-1.17-1.33-2.16-1.98-2.96l3.51-1.51Z"/>
  <path class="cls-1" d="M65.57,77.82c-.18.25-.36.54-.57.85-.2.32-.42.65-.64,1-.43.65-.93,1.47-1.51,2.44-.58.97-1.18,2.01-1.81,3.11-.63,1.11-1.25,2.2-1.85,3.28-.6,1.08-1.13,2.06-1.59,2.95.8-.63,1.64-1.09,2.51-1.38.87-.29,1.7-.43,2.51-.43,1.33,0,2.41.41,3.23,1.23.82.82,1.26,2,1.34,3.53.02.65.04,1.39.04,2.21s0,1.62.02,2.4c.01.78.04,1.46.09,2.04.05.88.35,1.5.89,1.87.54.37,1.16.55,1.87.55.96,0,1.82-.26,2.59-.79.77-.53,1.45-1.24,2.04-2.13.59-.89,1.09-1.87,1.51-2.94.42-1.07.75-2.15,1-3.23l3.17,2.61c-.65,2.09-1.47,3.92-2.45,5.49-.98,1.57-2.17,2.81-3.55,3.7-1.38.89-3.02,1.34-4.91,1.34-1.36,0-2.46-.25-3.3-.75-.84-.5-1.46-1.13-1.85-1.89-.39-.75-.61-1.53-.66-2.34-.05-.73-.08-1.52-.09-2.36-.01-.84-.03-1.67-.04-2.49-.01-.82-.04-1.53-.09-2.13-.03-.75-.25-1.34-.68-1.76s-1.03-.62-1.81-.62c-.93,0-1.83.28-2.7.83-.87.55-1.65,1.28-2.34,2.19s-1.28,1.86-1.76,2.87c-.28.55-.57,1.21-.87,1.98-.3.77-.6,1.56-.89,2.38-.29.82-.55,1.59-.77,2.32s-.42,1.33-.57,1.81l-4.15-1.4c.48-1.28,1.07-2.74,1.77-4.36.7-1.62,1.48-3.33,2.34-5.13.86-1.8,1.72-3.58,2.61-5.34.88-1.76,1.72-3.44,2.53-5.02.81-1.59,1.52-2.97,2.15-4.15.63-1.18,1.11-2.08,1.43-2.68.25-.45.52-.95.79-1.49.28-.54.54-1.15.79-1.83l4.23,1.7Z"/>
  <path class="cls-1" d="M89.73,82.01c1.46,0,3.01-.08,4.64-.23,1.64-.15,3.3-.36,5-.64,1.7-.28,3.34-.62,4.93-1.02v3.74c-1.56.35-3.21.65-4.95.91-1.74.25-3.44.45-5.1.59-1.66.14-3.18.21-4.57.21-.86,0-1.64-.01-2.36-.04-.72-.02-1.43-.06-2.13-.11l-.08-3.7c.93.1,1.76.18,2.47.23.72.05,1.43.08,2.13.08ZM98.64,75.97c-.13.45-.26,1.01-.4,1.68-.14.67-.25,1.19-.32,1.57-.18.88-.38,1.93-.62,3.15-.24,1.22-.52,2.5-.83,3.83-.31,1.33-.64,2.63-.96,3.89-.33,1.33-.73,2.78-1.21,4.34-.48,1.56-.99,3.14-1.53,4.74-.54,1.6-1.08,3.11-1.62,4.53-.54,1.42-1.08,2.67-1.6,3.76l-4.12-1.4c.55-.96,1.13-2.12,1.74-3.49.6-1.37,1.2-2.84,1.77-4.42.58-1.57,1.12-3.14,1.62-4.7.5-1.56.93-3,1.28-4.3.23-.88.45-1.81.68-2.77.23-.97.44-1.91.64-2.81.2-.91.36-1.76.49-2.55.13-.79.23-1.45.3-1.98.1-.6.16-1.22.17-1.85.01-.63,0-1.14-.02-1.55l4.53.34ZM102.95,96.77c-.13.58-.24,1.15-.34,1.72-.1.57-.15,1.09-.15,1.57,0,.43.08.84.25,1.23.16.39.45.74.87,1.04.42.3,1.01.54,1.77.72.77.18,1.76.26,2.96.26s2.49-.07,3.78-.21c1.28-.14,2.54-.32,3.78-.55l-.11,3.81c-1.06.13-2.21.25-3.45.36-1.25.11-2.59.17-4.02.17-3.07,0-5.42-.49-7.04-1.47-1.62-.98-2.44-2.4-2.44-4.27,0-.81.06-1.6.19-2.4.13-.79.28-1.57.45-2.32l3.51.34ZM101.63,87.44c1.03-.1,2.16-.18,3.4-.25,1.23-.06,2.45-.09,3.66-.09,1.11,0,2.22.02,3.34.06,1.12.04,2.21.12,3.27.25l-.11,3.62c-.96-.13-1.98-.24-3.08-.34-1.09-.1-2.21-.15-3.34-.15-1.23,0-2.44.03-3.61.09-1.17.06-2.35.17-3.53.32v-3.51Z"/>
  <path class="cls-1" d="M139.57,77.82c-.18.25-.36.54-.57.85-.2.32-.42.65-.64,1-.43.65-.93,1.47-1.51,2.44-.58.97-1.18,2.01-1.81,3.11-.63,1.11-1.25,2.2-1.85,3.28-.6,1.08-1.13,2.06-1.59,2.95.8-.63,1.64-1.09,2.51-1.38.87-.29,1.7-.43,2.51-.43,1.33,0,2.41.41,3.23,1.23.82.82,1.26,2,1.34,3.53.02.65.04,1.39.04,2.21s0,1.62.02,2.4c.01.78.04,1.46.09,2.04.05.88.35,1.5.89,1.87.54.37,1.16.55,1.87.55.96,0,1.82-.26,2.59-.79.77-.53,1.45-1.24,2.04-2.13.59-.89,1.09-1.87,1.51-2.94.42-1.07.75-2.15,1-3.23l3.17,2.61c-.65,2.09-1.47,3.92-2.45,5.49-.98,1.57-2.17,2.81-3.55,3.7-1.38.89-3.02,1.34-4.91,1.34-1.36,0-2.46-.25-3.3-.75-.84-.5-1.46-1.13-1.85-1.89-.39-.75-.61-1.53-.66-2.34-.05-.73-.08-1.52-.09-2.36-.01-.84-.03-1.67-.04-2.49-.01-.82-.04-1.53-.09-2.13-.03-.75-.25-1.34-.68-1.76s-1.03-.62-1.81-.62c-.93,0-1.83.28-2.7.83-.87.55-1.65,1.28-2.34,2.19s-1.28,1.86-1.76,2.87c-.28.55-.57,1.21-.87,1.98-.3.77-.6,1.56-.89,2.38-.29.82-.55,1.59-.77,2.32s-.42,1.33-.57,1.81l-4.15-1.4c.48-1.28,1.07-2.74,1.77-4.36.7-1.62,1.48-3.33,2.34-5.13.86-1.8,1.72-3.58,2.61-5.34.88-1.76,1.72-3.44,2.53-5.02.81-1.59,1.52-2.97,2.15-4.15.63-1.18,1.11-2.08,1.43-2.68.25-.45.52-.95.79-1.49.28-.54.54-1.15.79-1.83l4.23,1.7Z"/>
  <path class="cls-1" d="M167.01,74.08l3.4,1.1c-.88,2.19-1.93,4.36-3.13,6.51-1.21,2.15-2.51,4.17-3.91,6.06-1.4,1.89-2.84,3.55-4.32,4.98-.13-.3-.31-.67-.55-1.11-.24-.44-.5-.89-.77-1.36-.28-.47-.53-.84-.76-1.11,1.33-1.21,2.62-2.61,3.85-4.21,1.23-1.6,2.38-3.33,3.45-5.19,1.07-1.86,1.98-3.75,2.74-5.66ZM162.9,84.61l3.47-3.47.04.04v27.79h-3.51v-24.35ZM168.26,85.75h24.46v3.47h-24.46v-3.47ZM169.24,104.09h22.84v3.44h-22.84v-3.44ZM178.72,74.65h3.66v31.67h-3.66v-31.67Z"/>
  <path class="cls-1" d="M210.17,84.01l4.04.72c-.88,3.8-2.04,7.23-3.47,10.29-1.43,3.06-3.17,5.74-5.19,8.06-2.03,2.32-4.41,4.29-7.15,5.93-.2-.28-.5-.59-.91-.94-.4-.35-.81-.72-1.23-1.1-.42-.38-.79-.67-1.11-.87,4.1-2.11,7.36-5.03,9.76-8.74,2.4-3.71,4.16-8.16,5.27-13.35ZM202.54,76.19h10.72v3.62h-10.72v-3.62ZM211.49,76.19h3.66c0,1.16.04,2.5.13,4.02.09,1.52.3,3.15.62,4.87.33,1.72.83,3.51,1.51,5.34.68,1.84,1.58,3.66,2.7,5.47,1.12,1.81,2.54,3.57,4.25,5.27,1.71,1.7,3.78,3.27,6.19,4.7-.25.2-.57.48-.94.85-.38.36-.74.75-1.09,1.15-.35.4-.63.76-.83,1.06-2.47-1.51-4.58-3.18-6.34-5-1.76-1.82-3.24-3.76-4.44-5.8-1.2-2.04-2.16-4.09-2.89-6.15-.73-2.06-1.28-4.06-1.64-6-.37-1.94-.6-3.74-.72-5.42-.11-1.67-.17-3.13-.17-4.36Z"/>
  <path class="cls-1" d="M242.79,85.37c-.33.05-.81.11-1.43.19-.63.08-1.32.16-2.08.26-.76.1-1.52.2-2.28.3-.77.1-1.49.2-2.17.3l-.38-3.85c.48.03.93.03,1.36.02.43-.01.92-.03,1.47-.06.55-.05,1.23-.12,2.02-.21.79-.09,1.62-.19,2.47-.3.86-.11,1.66-.24,2.42-.38.75-.14,1.35-.28,1.77-.43l1.25,1.59c-.2.3-.45.67-.74,1.11-.29.44-.58.89-.87,1.34-.29.45-.54.86-.74,1.21l-1.62,6c-.43.65-.95,1.43-1.57,2.34s-1.26,1.86-1.94,2.85c-.68.99-1.35,1.98-2.02,2.94-.67.97-1.28,1.83-1.83,2.59l-2.34-3.28c.45-.58,1-1.28,1.64-2.11s1.31-1.71,2-2.64c.69-.93,1.38-1.86,2.06-2.79s1.3-1.79,1.85-2.59c.55-.79.99-1.45,1.32-1.98l.11-1.55.26-.87ZM242.41,78.69c0-.48,0-.98-.02-1.51-.01-.53-.06-1.04-.13-1.55l4.38.15c-.1.53-.23,1.33-.4,2.42-.16,1.08-.32,2.34-.47,3.78-.15,1.43-.3,2.94-.43,4.53s-.24,3.16-.32,4.72c-.08,1.56-.11,3.01-.11,4.34v3.13c0,1.01.02,2.01.06,3.02s.08,2.09.13,3.25c.02.33.06.74.09,1.23s.07.94.09,1.34h-4.08c.05-.4.08-.84.09-1.32.01-.48.02-.87.02-1.17,0-1.21,0-2.31.02-3.3.01-.99.02-2.03.04-3.1.01-1.07.04-2.33.09-3.79,0-.58.02-1.33.08-2.27.05-.93.11-1.96.19-3.1.08-1.13.15-2.28.23-3.44.08-1.16.14-2.25.21-3.28.06-1.03.12-1.91.17-2.64.05-.73.08-1.21.08-1.43ZM268.5,103.38c-.96.93-2.01,1.67-3.17,2.21-1.16.54-2.44.81-3.85.81-1.33,0-2.4-.44-3.21-1.32-.81-.88-1.21-2.16-1.21-3.85,0-1.03.07-2.15.21-3.36.14-1.21.3-2.44.47-3.68.18-1.25.34-2.44.49-3.57.15-1.13.23-2.14.23-3.02,0-1.03-.25-1.79-.75-2.27-.5-.48-1.21-.72-2.11-.72s-1.86.28-2.95.83c-1.08.55-2.19,1.29-3.32,2.21s-2.23,1.91-3.28,2.98c-1.06,1.07-2,2.12-2.83,3.15l.04-4.64c.45-.5,1.05-1.1,1.79-1.79.74-.69,1.58-1.4,2.51-2.13.93-.73,1.92-1.41,2.96-2.04,1.04-.63,2.09-1.14,3.13-1.53,1.04-.39,2.04-.59,3-.59,1.26,0,2.3.23,3.11.68s1.43,1.08,1.83,1.87c.4.79.6,1.72.6,2.77,0,.93-.07,2-.21,3.19-.14,1.2-.3,2.42-.47,3.66-.18,1.25-.33,2.47-.47,3.66-.14,1.2-.21,2.28-.21,3.27,0,.55.14,1.03.43,1.43.29.4.72.6,1.3.6.83,0,1.7-.26,2.62-.77.92-.52,1.83-1.24,2.74-2.17l.57,4.12Z"/>
  <path class="cls-1" d="M269.25,80.57c.73-.03,1.4-.06,2.02-.09.62-.04,1.11-.07,1.49-.1.68-.07,1.59-.17,2.74-.28,1.14-.11,2.45-.23,3.91-.36s3.02-.26,4.68-.42c1.66-.15,3.36-.3,5.1-.45,1.33-.1,2.64-.2,3.91-.28,1.27-.09,2.46-.16,3.57-.23,1.11-.06,2.09-.11,2.94-.13v3.81c-.7-.03-1.5-.03-2.4,0-.89.03-1.77.07-2.64.15s-1.64.2-2.32.38c-1.23.38-2.37.97-3.4,1.77-1.03.81-1.92,1.74-2.66,2.79-.74,1.06-1.31,2.18-1.7,3.36-.39,1.18-.59,2.33-.59,3.44,0,1.38.23,2.59.7,3.61s1.11,1.89,1.94,2.61,1.79,1.31,2.87,1.77c1.08.47,2.23.81,3.45,1.04,1.22.23,2.45.36,3.68.42l-1.36,4.04c-1.49-.07-2.96-.3-4.42-.66s-2.83-.88-4.11-1.55-2.42-1.5-3.42-2.51c-.99-1.01-1.77-2.16-2.34-3.47-.57-1.31-.85-2.79-.85-4.45,0-1.91.32-3.67.96-5.29.64-1.61,1.45-3.01,2.44-4.21.98-1.2,1.99-2.12,3.02-2.78-.76.08-1.69.17-2.79.28-1.11.11-2.3.25-3.57.4-1.27.15-2.55.31-3.83.47-1.28.16-2.5.33-3.64.51-1.15.18-2.15.35-3,.53l-.38-4.11ZM294.17,86.24c.3.43.64.95,1.02,1.57s.75,1.25,1.13,1.89c.38.64.69,1.23.94,1.76l-2.34,1.06c-.45-.96-.93-1.87-1.42-2.76-.49-.88-1.03-1.72-1.6-2.53l2.27-.98ZM298.36,84.61c.3.43.65.94,1.06,1.53.4.59.79,1.2,1.17,1.83.38.63.7,1.22.98,1.77l-2.3,1.09c-.5-.96-1.01-1.86-1.51-2.7-.5-.84-1.06-1.68-1.66-2.51l2.26-1.02Z"/>
  <path class="cls-1" d="M314.18,108.17c-.78-.96-1.64-1.94-2.59-2.95-.94-1.01-1.9-1.98-2.87-2.91-.97-.93-1.89-1.76-2.77-2.49l3.1-2.72c.91.73,1.86,1.58,2.87,2.55,1.01.97,1.99,1.96,2.96,2.98.97,1.02,1.81,1.96,2.51,2.81l-3.21,2.72Z"/>
  <path class="cls-1" d="M14.46,126.27h5.01v16.48c0,2.24-.12,4.64-.36,7.21-.24,2.57-.71,5.16-1.4,7.78-.69,2.62-1.7,5.12-3.05,7.52s-3.13,4.54-5.37,6.43c-.24-.34-.59-.75-1.03-1.21-.45-.46-.91-.91-1.4-1.34-.48-.43-.91-.77-1.29-1.01,2.03-1.76,3.64-3.68,4.83-5.79,1.19-2.1,2.07-4.27,2.66-6.51.59-2.24.96-4.48,1.14-6.72.17-2.24.26-4.37.26-6.41v-16.43ZM17.36,151.06h26.71v4.7h-26.71v-4.7ZM17.72,126.27h26.45v4.75h-26.45v-4.75ZM17.72,138.67h26.66v4.65h-26.66v-4.65ZM41.95,126.27h5.17v38.7c0,1.58-.23,2.8-.7,3.64-.46.84-1.23,1.47-2.3,1.89-1.1.45-2.56.72-4.37.83-1.81.1-4.09.16-6.85.16-.07-.52-.22-1.08-.46-1.7-.24-.62-.49-1.24-.75-1.86-.26-.62-.53-1.15-.8-1.6,1.34.07,2.66.11,3.95.13,1.29.02,2.43.02,3.41,0,.98-.02,1.68-.03,2.09-.03.59,0,1-.11,1.24-.34.24-.22.36-.61.36-1.16v-38.64Z"/>
  <path class="cls-1" d="M69.22,168.01c-1.96,0-3.72-.24-5.27-.72s-2.91-1.12-4.08-1.91c-1.17-.79-2.2-1.62-3.1-2.48l2.84-3.88c.72.72,1.51,1.39,2.38,1.99.86.6,1.83,1.09,2.92,1.47,1.08.38,2.3.57,3.64.57,1.41,0,2.69-.32,3.82-.96s2.03-1.57,2.69-2.79c.65-1.22.98-2.68.98-4.36,0-2.48-.66-4.41-1.99-5.79-1.33-1.38-3.07-2.07-5.24-2.07-1.21,0-2.24.17-3.1.52-.86.34-1.84.88-2.94,1.6l-2.94-1.91,1.14-18.08h19.27v5.06h-14.1l-.88,9.71c.83-.41,1.65-.73,2.48-.96.83-.22,1.74-.34,2.74-.34,2.13,0,4.08.43,5.84,1.29,1.76.86,3.15,2.18,4.18,3.95s1.55,4.06,1.55,6.84-.6,5.18-1.81,7.16c-1.21,1.98-2.78,3.49-4.73,4.52-1.95,1.03-4.04,1.55-6.28,1.55Z"/>
  <path class="cls-1" d="M101.67,131.38h5.11c-.1,2.93-.26,5.92-.47,8.96-.21,3.05-.61,6.06-1.21,9.04-.6,2.98-1.48,5.84-2.64,8.58-1.15,2.74-2.71,5.27-4.67,7.59-1.96,2.32-4.46,4.37-7.49,6.12-.38-.65-.9-1.35-1.58-2.09-.67-.74-1.34-1.35-1.99-1.83,2.86-1.51,5.2-3.32,7.03-5.42,1.82-2.1,3.25-4.39,4.29-6.87s1.8-5.07,2.3-7.78c.5-2.7.83-5.43.98-8.19.15-2.76.27-5.46.34-8.11ZM88.49,127.4h45.41v4.8h-45.41v-4.8ZM104.82,141.82h21.23v4.75h-21.23v-4.75ZM124.35,141.82h5.06c0,.59,0,1.06-.03,1.42-.02.36-.04.65-.08.85-.17,4.13-.38,7.65-.62,10.54-.24,2.89-.51,5.3-.8,7.23-.29,1.93-.63,3.46-1.01,4.6-.38,1.14-.81,1.98-1.29,2.53-.69.76-1.42,1.28-2.2,1.58-.77.29-1.7.49-2.76.59-.96.1-2.28.14-3.95.1-1.67-.03-3.38-.09-5.14-.16-.03-.72-.21-1.54-.52-2.45-.31-.91-.71-1.7-1.19-2.35,1.86.14,3.62.23,5.27.26s2.84.05,3.56.05c.62.03,1.11,0,1.47-.08.36-.09.7-.27,1.01-.54.55-.52,1.02-1.63,1.39-3.33.38-1.7.71-4.18,1.01-7.44.29-3.26.56-7.43.8-12.53v-.88Z"/>
  <path class="cls-1" d="M141.45,127.09h40.5v4.86h-35.6v39.68h-4.91v-44.53ZM144.13,146.21h37.87v4.86h-37.87v-4.86ZM160.25,129.62h4.86v19.01h-4.86v-19.01ZM179.68,127.09h4.91v38.49c0,1.41-.18,2.51-.54,3.31-.36.79-1.04,1.39-2.04,1.81-.93.41-2.17.67-3.72.78-1.55.1-3.48.16-5.79.16-.07-.48-.21-1.02-.41-1.6-.21-.59-.43-1.17-.67-1.76-.24-.59-.5-1.1-.77-1.55,1.14.03,2.22.06,3.25.08,1.03.02,1.95.02,2.76,0,.81-.02,1.37-.03,1.68-.03.48,0,.83-.1,1.03-.28s.31-.51.31-.96v-38.44Z"/>
  <path class="cls-1" d="M218.42,131.95c-.34,2.65-.78,5.45-1.32,8.4-.53,2.94-1.25,5.86-2.14,8.76-1.03,3.51-2.2,6.48-3.49,8.91s-2.7,4.28-4.21,5.55c-1.52,1.27-3.12,1.91-4.8,1.91s-3.32-.59-4.8-1.78c-1.48-1.19-2.69-2.86-3.62-5.01-.93-2.15-1.4-4.66-1.4-7.52s.59-5.63,1.78-8.21c1.19-2.58,2.83-4.87,4.93-6.87,2.1-2,4.55-3.56,7.34-4.7,2.79-1.14,5.8-1.71,9.04-1.71s5.9.5,8.4,1.5c2.5,1,4.63,2.38,6.41,4.16,1.77,1.77,3.13,3.85,4.06,6.22.93,2.38,1.39,4.91,1.39,7.59,0,3.62-.75,6.83-2.25,9.64-1.5,2.81-3.69,5.1-6.59,6.87-2.89,1.77-6.44,2.97-10.64,3.59l-3.05-4.86c.9-.1,1.72-.21,2.48-.34.76-.12,1.46-.25,2.12-.39,1.65-.38,3.23-.96,4.73-1.76,1.5-.79,2.83-1.8,4-3.02,1.17-1.22,2.09-2.66,2.76-4.31.67-1.65,1.01-3.51,1.01-5.58s-.33-3.99-.98-5.76c-.65-1.77-1.62-3.31-2.89-4.62-1.27-1.31-2.84-2.33-4.7-3.07-1.86-.74-3.96-1.11-6.3-1.11-2.82,0-5.34.5-7.54,1.5-2.2,1-4.07,2.32-5.61,3.95-1.53,1.64-2.7,3.4-3.49,5.3-.79,1.89-1.19,3.72-1.19,5.48,0,1.96.24,3.59.72,4.88.48,1.29,1.09,2.25,1.81,2.87s1.46.93,2.22.93,1.53-.39,2.32-1.16c.79-.78,1.59-2.01,2.4-3.69.81-1.69,1.61-3.84,2.4-6.46.79-2.48,1.45-5.12,1.99-7.93.53-2.81.92-5.55,1.16-8.24l5.53.1Z"/>
  <path class="cls-1" d="M243.07,125.96h28.62v4.18h-28.62v-4.18ZM244.31,149.15h26.76v21.9h-4.6v-18.08h-17.72v18.55h-4.44v-22.37ZM246.06,133.34h22.99v12.55h-22.99v-12.55ZM246.42,165.22h21.9v3.82h-21.9v-3.82ZM246.79,157.11h21.13v3.67h-21.13v-3.67ZM250.51,137.17v4.96h13.9v-4.96h-13.9ZM255.41,151.32h4.34v15.81h-4.34v-15.81ZM274.53,129.94h4.34v28.88h-4.34v-28.88ZM283.47,124.67h4.75v40.87c0,1.48-.18,2.61-.54,3.38-.36.78-.99,1.35-1.89,1.73-.86.41-2.02.68-3.49.8-1.46.12-3.3.18-5.5.18-.07-.48-.19-1.02-.36-1.6-.17-.59-.36-1.18-.57-1.78s-.43-1.13-.67-1.58c1.55.07,3,.1,4.34.1h2.69c.45-.03.77-.14.96-.31.19-.17.28-.48.28-.93v-40.87Z"/>
  <path class="cls-1" d="M293.54,156.64c2.03-.41,4.48-.98,7.34-1.7,2.86-.72,5.75-1.45,8.68-2.17l.62,4.55c-2.69.79-5.39,1.56-8.11,2.3-2.72.74-5.2,1.42-7.44,2.04l-1.08-5.01ZM297.26,129.68h4.55v27.95h-4.55v-27.95ZM307.39,123.94h4.75v47.63h-4.75v-47.63ZM335.44,127.46h.83l.88-.21,3.25.98c-.96,7.34-2.56,13.8-4.78,19.4-2.22,5.6-4.99,10.38-8.32,14.34-3.32,3.96-7.1,7.16-11.34,9.61-.21-.45-.51-.94-.9-1.47-.4-.53-.8-1.05-1.21-1.55-.41-.5-.83-.9-1.24-1.21,2.93-1.45,5.63-3.39,8.11-5.84,2.48-2.44,4.71-5.33,6.69-8.65,1.98-3.32,3.65-7.03,5.01-11.11,1.36-4.08,2.37-8.48,3.02-13.2v-1.08ZM314.21,127.46h22.47v4.75h-22.47v-4.75ZM321.08,132.57c1,5.27,2.41,10.18,4.24,14.72,1.82,4.55,4.15,8.54,6.97,11.99,2.82,3.44,6.23,6.15,10.23,8.11-.38.28-.79.66-1.24,1.16-.45.5-.88,1.02-1.29,1.58-.41.55-.74,1.05-.98,1.5-4.24-2.34-7.81-5.36-10.72-9.07-2.91-3.7-5.32-8.02-7.23-12.94-1.91-4.92-3.45-10.33-4.62-16.22l4.65-.83Z"/>
  <path class="cls-1" d="M365.87,137.37l5.53.98c-1.21,5.2-2.79,9.89-4.75,14.08-1.96,4.18-4.33,7.86-7.1,11.03-2.77,3.17-6.04,5.87-9.79,8.11-.28-.38-.69-.81-1.24-1.29s-1.11-.98-1.68-1.5c-.57-.52-1.08-.91-1.52-1.19,5.61-2.89,10.07-6.88,13.36-11.96,3.29-5.08,5.69-11.17,7.21-18.26ZM355.43,126.68h14.67v4.96h-14.67v-4.96ZM367.68,126.68h5.01c0,1.58.06,3.42.18,5.5.12,2.08.4,4.31.85,6.66.45,2.36,1.14,4.8,2.07,7.31.93,2.51,2.16,5.01,3.69,7.49,1.53,2.48,3.47,4.88,5.81,7.21,2.34,2.32,5.17,4.47,8.47,6.43-.35.28-.78.66-1.29,1.16-.52.5-1.02,1.02-1.5,1.58s-.86,1.03-1.14,1.45c-3.38-2.07-6.27-4.35-8.68-6.84-2.41-2.5-4.43-5.14-6.07-7.93-1.64-2.79-2.95-5.6-3.95-8.42-1-2.82-1.75-5.56-2.25-8.21-.5-2.65-.83-5.12-.98-7.41-.16-2.29-.23-4.28-.23-5.97Z"/>
  <path class="cls-1" d="M408.96,137.91c-.15.73-.36,1.62-.62,2.66-.26,1.04-.65,2.22-1.15,3.53-.43,1.06-.95,2.14-1.57,3.25-.62,1.11-1.25,2.11-1.91,3.02.43-.25.92-.46,1.49-.62.57-.16,1.14-.29,1.74-.38.59-.09,1.13-.13,1.6-.13,1.51,0,2.78.43,3.81,1.3,1.03.87,1.55,2.12,1.55,3.76v1.85c0,.73.01,1.5.04,2.3.02.81.04,1.6.06,2.38s.02,1.46.02,2.04h-3.59c.03-.48.05-1.04.08-1.68.02-.64.04-1.31.06-2.02s.02-1.38.02-2.04v-1.74c-.03-1.13-.37-1.95-1.02-2.45-.65-.5-1.42-.75-2.3-.75-1.13,0-2.26.26-3.38.79-1.12.53-2.08,1.17-2.89,1.92-.53.53-1.08,1.13-1.64,1.81-.57.68-1.16,1.42-1.79,2.23l-3.25-2.42c1.74-1.64,3.21-3.2,4.42-4.68s2.21-2.9,3-4.25c.79-1.35,1.42-2.62,1.87-3.83.4-1.03.73-2.08.98-3.15.25-1.07.4-2.07.45-3l3.93.3ZM395.45,141.72c1.01.15,2.11.26,3.32.32s2.27.09,3.17.09c1.69,0,3.51-.04,5.47-.11,1.96-.07,3.94-.2,5.95-.38,2-.18,3.89-.43,5.68-.75v3.51c-1.33.18-2.76.34-4.27.49-1.51.15-3.05.27-4.61.36-1.56.09-3.06.15-4.49.19s-2.74.06-3.93.06c-.53,0-1.15,0-1.87-.02s-1.46-.04-2.23-.09-1.5-.09-2.21-.11v-3.55ZM424.78,151.54c-.35.13-.76.26-1.23.42-.47.15-.92.32-1.38.49-.45.18-.87.34-1.25.49-1.28.5-2.77,1.11-4.47,1.81-1.7.7-3.44,1.52-5.23,2.45-1.21.63-2.25,1.26-3.13,1.89s-1.57,1.28-2.06,1.96c-.49.68-.74,1.42-.74,2.23,0,.65.15,1.18.45,1.59.3.4.72.71,1.26.93.54.21,1.2.36,1.96.45.77.09,1.63.13,2.59.13,1.51,0,3.22-.09,5.13-.26,1.91-.18,3.7-.42,5.36-.72l-.11,3.81c-.91.1-1.96.21-3.17.32-1.21.11-2.45.2-3.72.26-1.27.06-2.47.1-3.61.1-1.89,0-3.59-.18-5.1-.53-1.51-.35-2.71-.96-3.59-1.83-.88-.87-1.32-2.08-1.32-3.64,0-1.23.28-2.35.85-3.34.57-.99,1.31-1.89,2.23-2.7s1.94-1.55,3.08-2.23c1.13-.68,2.25-1.3,3.36-1.85,1.18-.63,2.28-1.18,3.3-1.64,1.02-.46,1.98-.89,2.87-1.26.89-.38,1.73-.75,2.51-1.13.65-.28,1.27-.55,1.85-.81s1.16-.55,1.74-.85l1.55,3.47Z"/>
  <path class="cls-1" d="M429.76,145.65c.18.05.46.09.85.13.39.04.86.08,1.4.11.54.04,1.1.06,1.68.06h24.88c.93,0,1.7-.02,2.32-.08.62-.05,1.1-.1,1.45-.15v4c-.3-.03-.77-.05-1.42-.08-.64-.03-1.42-.04-2.32-.04h-24.92c-.58,0-1.13,0-1.66.02-.53.01-.99.03-1.38.06-.39.03-.69.05-.89.07v-4.11ZM441.43,138.59c-.03.25-.07.64-.13,1.17s-.09,1.14-.09,1.85v13.67c0,.5.01,1.01.04,1.51.02.5.05.94.08,1.32.02.38.05.65.07.83h-4.19c.03-.18.05-.45.08-.83.02-.38.05-.81.08-1.3.02-.49.04-1,.04-1.53v-13.67c0-.48-.02-.98-.06-1.51s-.09-1.03-.17-1.51h4.27ZM455.02,150.9c0,2.44-.16,4.62-.49,6.55-.33,1.93-.89,3.65-1.7,5.17-.81,1.52-1.93,2.88-3.36,4.08-1.43,1.2-3.26,2.3-5.47,3.3l-3.21-3.02c1.76-.65,3.3-1.38,4.61-2.19,1.31-.81,2.39-1.79,3.25-2.96s1.49-2.62,1.91-4.36c.42-1.74.62-3.85.62-6.34v-9.55c0-.76-.02-1.42-.06-2-.04-.58-.08-1.01-.13-1.28h4.27c-.03.28-.07.71-.13,1.28-.06.58-.09,1.25-.09,2v9.32Z"/>
  <path class="cls-1" d="M477.6,154.26c-.4.81-.91,1.69-1.51,2.66-.6.97-1.25,1.94-1.94,2.91-.69.97-1.37,1.88-2.02,2.72-.65.84-1.25,1.55-1.77,2.13l-3.25-2.23c.63-.58,1.28-1.27,1.96-2.08.68-.81,1.34-1.66,1.98-2.55.64-.89,1.24-1.79,1.79-2.68.55-.89,1.02-1.73,1.4-2.51l3.36,1.62ZM468.54,144.78c.53.05,1.08.1,1.64.15.57.05,1.14.08,1.72.08h23.45c.48,0,1.04-.02,1.68-.06.64-.04,1.2-.09,1.68-.17v3.93c-.53-.03-1.1-.04-1.7-.06-.6-.01-1.15-.02-1.62-.02h-23.45c-.58,0-1.16,0-1.76.02-.59.01-1.14.04-1.64.09v-3.96ZM486.17,138.55c-.03.18-.06.45-.11.81-.05.37-.09.74-.13,1.13s-.06.74-.06,1.04v25.07c0,1.03-.28,1.82-.83,2.38-.55.55-1.46.83-2.72.83-.58,0-1.2-.01-1.87-.04-.67-.03-1.33-.06-1.98-.1-.65-.04-1.27-.08-1.85-.13l-.34-3.74c.83.15,1.64.26,2.42.32s1.41.09,1.89.09c.5,0,.86-.11,1.08-.32s.33-.57.36-1.08v-23.33c0-.45-.03-.98-.1-1.59-.06-.6-.13-1.06-.21-1.36h4.46ZM493.57,152.6c.5.6,1.05,1.33,1.64,2.17.59.84,1.19,1.73,1.79,2.66.6.93,1.17,1.84,1.7,2.72.53.88.98,1.66,1.36,2.34l-3.47,1.96c-.4-.78-.86-1.63-1.38-2.55s-1.06-1.84-1.62-2.77c-.57-.93-1.13-1.81-1.7-2.64s-1.09-1.53-1.57-2.11l3.25-1.77ZM491.98,139.87c0-.78.2-1.49.59-2.13.39-.64.9-1.15,1.53-1.53.63-.38,1.33-.57,2.11-.57s1.49.19,2.13.57c.64.38,1.16.89,1.55,1.53.39.64.59,1.35.59,2.13s-.2,1.49-.59,2.13-.91,1.15-1.55,1.53c-.64.38-1.35.57-2.13.57s-1.49-.19-2.11-.57c-.63-.38-1.14-.89-1.53-1.53-.39-.64-.59-1.35-.59-2.13ZM493.98,139.87c0,.63.21,1.17.64,1.6.43.44.96.66,1.59.66s1.16-.22,1.6-.66c.44-.44.66-.98.66-1.6s-.22-1.16-.66-1.6-.98-.66-1.6-.66-1.16.22-1.59.66-.64.98-.64,1.6Z"/>
  <path class="cls-1" d="M505.04,151.12c.43.03.95.06,1.57.1.62.04,1.28.07,2,.09.72.03,1.4.04,2.06.04h20.54c.91,0,1.72-.03,2.45-.1.73-.06,1.32-.11,1.77-.13v4.68c-.43-.02-1.03-.06-1.81-.11-.78-.05-1.59-.08-2.42-.08h-20.54c-1.03,0-2.06.02-3.09.06-1.03.04-1.88.08-2.53.13v-4.68Z"/>
  <path class="cls-1" d="M542.42,164.49v-21.82c0-.6-.03-1.3-.08-2.1s-.14-1.5-.26-2.13h4.64c-.05.6-.11,1.3-.17,2.08s-.09,1.5-.09,2.15v21.82c0,.4.01.89.04,1.47.02.58.06,1.16.11,1.76s.1,1.13.15,1.6h-4.64c.1-.65.18-1.44.23-2.36s.08-1.74.08-2.47ZM545.59,148.29c1.23.35,2.62.79,4.15,1.3,1.53.52,3.08,1.07,4.64,1.66,1.56.59,3.05,1.18,4.46,1.76,1.41.58,2.61,1.11,3.59,1.59l-1.7,4.12c-1.06-.58-2.25-1.16-3.57-1.76-1.32-.59-2.67-1.16-4.06-1.72s-2.72-1.06-4.02-1.51-2.46-.84-3.49-1.17v-4.27Z"/>
  <path class="cls-1" d="M573.64,158.68c1.11,0,2.1.27,2.98.81.88.54,1.59,1.25,2.11,2.13s.79,1.88.79,2.98-.26,2.07-.79,2.96c-.53.89-1.23,1.6-2.11,2.13s-1.88.79-2.98.79-2.07-.26-2.96-.79-1.61-1.24-2.15-2.13c-.54-.89-.81-1.88-.81-2.96s.27-2.1.81-2.98,1.26-1.59,2.15-2.13c.89-.54,1.88-.81,2.96-.81ZM573.64,168.23c1.01,0,1.86-.35,2.57-1.06.7-.7,1.06-1.57,1.06-2.61,0-.65-.16-1.25-.47-1.79-.32-.54-.75-.98-1.3-1.3-.55-.33-1.17-.49-1.85-.49s-1.26.16-1.81.49c-.55.33-.99.76-1.32,1.3s-.49,1.15-.49,1.83.16,1.26.49,1.83.76,1.01,1.3,1.32c.54.31,1.15.47,1.83.47Z"/>
  <rect class="cls-1" x="1" y="182.98" width="589" height="3.07"/>
</svg>