<?xml version="1.0" encoding="UTF-8"?>
<svg id="_レイヤー_1" data-name=" レイヤー 1" xmlns="http://www.w3.org/2000/svg" viewBox="0 0 591.54 200">
  <defs>
    <style>
      .cls-1 {
        fill: #fff;
      }
    </style>
  </defs>
  <path class="cls-1" d="M118.13,19.96c-.51.51-1.06,1.08-1.63,1.7s-1.07,1.18-1.49,1.66c-.86.99-1.88,2.08-3.05,3.26-1.17,1.18-2.43,2.38-3.79,3.58s-2.79,2.31-4.3,3.34c-1.73,1.22-3.63,2.36-5.71,3.43s-4.3,2.06-6.65,2.98c-2.35.91-4.86,1.77-7.51,2.57l-2.93-4.46c4.61-1.06,8.48-2.33,11.62-3.82s5.78-2.92,7.92-4.3c1.34-.86,2.6-1.78,3.77-2.76s2.21-1.93,3.12-2.86,1.62-1.74,2.14-2.45h-18.82c-.54,0-1.21,0-1.99.02-.78.02-1.54.04-2.26.07-.72.03-1.32.06-1.8.1v-4.99c.83.1,1.82.17,2.98.22,1.15.05,2.14.07,2.98.07h20.83c.64,0,1.26-.03,1.85-.1.59-.06,1.11-.16,1.56-.29l3.17,3.02h0ZM104.45,30.81v14.83c0,.58,0,1.21.02,1.9.02.69.05,1.36.1,2.02.05.66.09,1.24.12,1.75h-5.47c.06-.48.12-1.05.17-1.7.05-.66.09-1.34.12-2.04.03-.7.05-1.34.05-1.92v-12.82l4.9-2.02h-.01ZM104.83,10.17c-.06.54-.13,1.22-.19,2.04-.06.82-.1,1.58-.1,2.28v4.99h-4.9v-4.99c0-.74-.02-1.5-.07-2.3s-.12-1.47-.22-2.02h5.48ZM119.71,43.05c-1.38-1.09-2.67-2.04-3.89-2.86s-2.43-1.6-3.65-2.35-2.54-1.51-3.98-2.28l3.12-3.6c1.5.77,2.84,1.49,4.01,2.16,1.17.67,2.34,1.38,3.53,2.11,1.18.74,2.53,1.62,4.03,2.64,0,0-3.17,4.18-3.17,4.18Z"/>
  <path class="cls-1" d="M132.53,23.42c.29.54.63,1.29,1.03,2.23s.82,1.96,1.25,3.05c.43,1.09.84,2.13,1.22,3.12.38.99.69,1.82.91,2.5l-4.56,1.68c-.19-.61-.48-1.43-.86-2.47s-.79-2.12-1.22-3.24-.85-2.15-1.25-3.1c-.4-.94-.74-1.66-1.03-2.14,0,0,4.51-1.63,4.51-1.63ZM161.23,23.99c-.22.61-.41,1.14-.55,1.58-.14.45-.26.86-.36,1.25-.64,2.56-1.5,5.07-2.57,7.54-1.07,2.46-2.46,4.78-4.15,6.96-2.21,2.82-4.71,5.19-7.51,7.13-2.8,1.94-5.56,3.43-8.28,4.49l-3.98-4.08c1.79-.51,3.65-1.25,5.57-2.21s3.77-2.11,5.54-3.46c1.78-1.34,3.32-2.83,4.63-4.46,1.09-1.38,2.08-2.95,2.98-4.73s1.63-3.66,2.21-5.66.98-4.01,1.2-6.02l5.28,1.68h0ZM143.71,20.92c.22.48.51,1.19.86,2.14.35.94.73,1.95,1.13,3.02.4,1.07.77,2.09,1.1,3.05.34.96.58,1.7.74,2.21l-4.51,1.63c-.13-.58-.35-1.34-.67-2.28s-.67-1.94-1.06-2.98c-.38-1.04-.76-2.04-1.13-3-.37-.96-.7-1.73-.98-2.3l4.51-1.49h.01Z"/>
  <path class="cls-1" d="M172.22,44.54v-27.74c0-.77-.03-1.66-.1-2.66-.06-1.01-.18-1.91-.34-2.71h5.9c-.06.77-.14,1.65-.22,2.64-.08.99-.12,1.9-.12,2.74v27.74c0,.51.02,1.14.05,1.87.03.74.08,1.48.14,2.23s.13,1.43.19,2.04h-5.9c.13-.83.22-1.83.29-3,.06-1.17.1-2.22.1-3.14h0ZM176.25,23.94c1.57.45,3.33,1,5.28,1.66s3.92,1.36,5.9,2.11,3.87,1.5,5.66,2.23c1.79.74,3.31,1.41,4.56,2.02l-2.16,5.23c-1.34-.74-2.86-1.48-4.54-2.23s-3.4-1.48-5.16-2.18c-1.76-.7-3.46-1.34-5.11-1.92s-3.13-1.07-4.44-1.49v-5.42h.01Z"/>
  <path class="cls-1" d="M207.79,11.18l3.84.62c-.22,2.14-.5,4.27-.84,6.38s-.73,4.1-1.18,5.95c-.45,1.86-.98,3.5-1.58,4.94-.26-.19-.58-.42-.98-.67-.4-.26-.82-.51-1.25-.77s-.79-.46-1.08-.62c.58-1.31,1.06-2.83,1.44-4.56s.71-3.55.98-5.47c.27-1.92.49-3.86.65-5.81h0ZM205.1,34.89c1.54-.38,3.29-.85,5.26-1.39s4.05-1.14,6.24-1.78c2.19-.64,4.39-1.28,6.6-1.92l.58,4.03c-3.01.93-6.06,1.87-9.17,2.83-3.1.96-5.89,1.82-8.35,2.59l-1.15-4.37h-.01ZM208.56,18.04h14.06v4.32h-14.88l.82-4.32ZM213.88,8.44h4.22v44.54h-4.22V8.44ZM228.81,8.44l4.13.77c-.58,2.66-1.3,5.22-2.18,7.68-.88,2.46-1.89,4.76-3.02,6.89-1.14,2.13-2.36,3.99-3.67,5.59-.26-.22-.59-.5-1.01-.84s-.85-.66-1.3-.98-.85-.58-1.2-.77c1.34-1.41,2.54-3.09,3.58-5.04,1.04-1.95,1.95-4.06,2.74-6.31.78-2.26,1.43-4.58,1.94-6.98h-.01ZM233.52,17.56l3.36,1.68c-.67,2.78-1.59,5.62-2.76,8.52s-2.52,5.59-4.06,8.09-3.2,4.56-4.99,6.19c-.42-.42-.95-.87-1.61-1.37s-1.3-.9-1.94-1.22c1.41-1.12,2.74-2.49,3.98-4.1,1.25-1.62,2.38-3.41,3.41-5.38,1.02-1.97,1.92-4.02,2.69-6.14.77-2.13,1.41-4.22,1.92-6.26h0ZM240.29,17.99l3.55,1.63c-.58,3.2-1.34,6.37-2.3,9.5-.96,3.14-2.09,6.14-3.38,9.02-1.3,2.88-2.77,5.5-4.42,7.87s-3.5,4.37-5.54,6c-.42-.42-.98-.89-1.7-1.42s-1.4-.95-2.04-1.27c2.11-1.5,4.02-3.38,5.71-5.64,1.7-2.26,3.19-4.78,4.49-7.56,1.3-2.78,2.42-5.72,3.36-8.81.94-3.09,1.7-6.2,2.28-9.34v.02ZM229.25,16.22h17.86v4.22h-19.82l1.97-4.22h-.01ZM245.18,16.22h4.32v1.37c0,.34-.02.62-.05.84-.26,5.44-.52,10.05-.79,13.82-.27,3.78-.55,6.88-.84,9.31s-.62,4.34-.98,5.71c-.37,1.38-.79,2.35-1.27,2.93-.51.74-1.04,1.25-1.58,1.54-.54.29-1.2.5-1.97.62-.64.1-1.45.15-2.42.17-.98.02-1.99,0-3.05-.07-.03-.67-.15-1.43-.36-2.28s-.5-1.58-.89-2.18c1.02.1,1.95.15,2.78.17.83.02,1.47.02,1.92.02.42,0,.75-.06,1.01-.17.26-.11.53-.33.82-.65.35-.45.69-1.3,1.01-2.54.32-1.25.62-3.04.89-5.38s.53-5.32.77-8.95.47-8.04.7-13.22v-1.06h-.02Z"/>
  <path class="cls-1" d="M260.88,41.56l4.18,1.01c-.61,1.98-1.42,3.92-2.45,5.81-1.02,1.89-2.13,3.47-3.31,4.75-.26-.26-.6-.54-1.03-.84s-.88-.62-1.34-.94c-.46-.32-.87-.56-1.22-.72,1.18-1.12,2.22-2.49,3.1-4.1.88-1.62,1.58-3.27,2.09-4.97h-.02ZM258.38,10.31h15.02v30.53h-15.02V10.31ZM262.46,13.96v5.38h6.72v-5.38h-6.72ZM262.46,22.79v5.42h6.72v-5.42h-6.72ZM262.46,31.67v5.47h6.72v-5.47h-6.72ZM266.88,43.05l3.55-1.54c.74.93,1.45,1.97,2.14,3.12.69,1.15,1.22,2.16,1.61,3.02l-3.74,1.82c-.32-.86-.82-1.9-1.49-3.12-.67-1.22-1.36-2.32-2.06-3.31h0ZM277.1,10.89h4.18v17.76c0,1.89-.06,3.9-.19,6.05-.13,2.14-.37,4.31-.72,6.5s-.87,4.31-1.56,6.36-1.61,3.9-2.76,5.57c-.26-.26-.61-.54-1.06-.84s-.9-.6-1.37-.89c-.46-.29-.87-.51-1.22-.67,1.44-2.08,2.5-4.39,3.17-6.94s1.1-5.13,1.27-7.75c.18-2.62.26-5.09.26-7.39V10.89ZM278.45,10.89h21.07v4.13h-21.07v-4.13h0ZM294.67,22.98h.82l.77-.1,2.69.62c-.67,5.22-1.8,9.74-3.38,13.56-1.58,3.82-3.58,7.02-5.98,9.6-2.4,2.58-5.17,4.66-8.3,6.26-.19-.38-.43-.81-.72-1.27-.29-.46-.59-.92-.91-1.37s-.66-.8-1.01-1.06c2.82-1.22,5.32-2.99,7.51-5.33,2.19-2.34,4.02-5.19,5.5-8.57,1.47-3.38,2.48-7.24,3.02-11.59v-.77.02ZM279.6,22.98h16.27v4.03h-16.27v-4.03h0ZM284.59,25.77c.8,3.68,1.92,7.06,3.36,10.15,1.44,3.09,3.26,5.79,5.45,8.11s4.79,4.14,7.8,5.45c-.32.26-.67.6-1.06,1.03-.38.43-.74.87-1.08,1.32s-.62.86-.84,1.25c-3.14-1.57-5.83-3.63-8.09-6.19s-4.14-5.55-5.64-8.98c-1.5-3.42-2.72-7.2-3.65-11.33l3.74-.82h0Z"/>
  <path class="cls-1" d="M329.13,16.12c-.32,2.46-.73,5.06-1.22,7.8-.5,2.74-1.16,5.45-1.99,8.14-.96,3.26-2.04,6.02-3.24,8.28-1.2,2.26-2.5,3.98-3.91,5.16s-2.9,1.78-4.46,1.78-3.09-.55-4.46-1.66c-1.38-1.1-2.5-2.66-3.36-4.66s-1.3-4.33-1.3-6.98.55-5.23,1.66-7.63,2.63-4.53,4.58-6.38c1.95-1.86,4.22-3.31,6.82-4.37,2.59-1.06,5.39-1.58,8.4-1.58s5.48.46,7.8,1.39c2.32.93,4.3,2.22,5.95,3.86,1.65,1.65,2.9,3.58,3.77,5.78.86,2.21,1.3,4.56,1.3,7.06,0,3.36-.7,6.34-2.09,8.95-1.39,2.61-3.43,4.74-6.12,6.38-2.69,1.65-5.98,2.76-9.89,3.34l-2.83-4.51c.83-.1,1.6-.2,2.3-.31.7-.11,1.36-.23,1.97-.36,1.54-.35,3-.9,4.39-1.63,1.39-.74,2.63-1.67,3.72-2.81,1.09-1.14,1.94-2.47,2.57-4.01s.94-3.26.94-5.18-.3-3.7-.91-5.35c-.61-1.65-1.5-3.08-2.69-4.3-1.18-1.22-2.64-2.17-4.37-2.86-1.73-.69-3.68-1.03-5.86-1.03-2.62,0-4.96.46-7.01,1.39-2.05.93-3.78,2.15-5.21,3.67-1.42,1.52-2.5,3.16-3.24,4.92s-1.1,3.46-1.1,5.09c0,1.82.22,3.34.67,4.54s1.01,2.09,1.68,2.66c.67.58,1.36.86,2.06.86s1.42-.36,2.16-1.08,1.48-1.86,2.23-3.43,1.5-3.57,2.23-6c.74-2.3,1.35-4.76,1.85-7.37.5-2.61.86-5.16,1.08-7.66l5.14.1h-.01Z"/>
  <path class="cls-1" d="M358.13,8.15l4.22,1.1c-.61,1.57-1.34,3.12-2.18,4.66-.85,1.54-1.76,2.98-2.74,4.32-.98,1.34-1.96,2.53-2.95,3.55-.26-.26-.62-.54-1.08-.84s-.94-.61-1.42-.91-.9-.55-1.25-.74c1.54-1.38,2.96-3.06,4.27-5.04s2.35-4.02,3.12-6.1h.01ZM370.17,38.15l3.5,1.63c-1.09,1.34-2.37,2.64-3.84,3.89s-3.06,2.42-4.75,3.5c-1.7,1.09-3.44,2.07-5.23,2.95s-3.57,1.61-5.33,2.18c-.22-.35-.5-.75-.84-1.2s-.68-.89-1.03-1.32-.7-.78-1.06-1.03c1.76-.48,3.52-1.1,5.28-1.85s3.47-1.58,5.14-2.5c1.66-.91,3.19-1.9,4.58-2.95,1.39-1.06,2.58-2.16,3.58-3.31h0ZM357.79,29.42h4.56c-.29,1.41-.62,2.89-.98,4.44-.37,1.55-.73,3.05-1.08,4.49-.35,1.44-.7,2.72-1.06,3.84l-4.51-.62c.35-1.09.72-2.32,1.1-3.7s.74-2.8,1.08-4.27.63-2.86.89-4.18ZM360.24,29.42h26.3v-4.03h-30.82v-3.79h35.28v11.57h-30.77v-3.74h.01ZM357.45,12.42h15.36v3.55h-15.36v-3.55ZM358.99,36.9h31.39v3.84h-32.54l1.15-3.84ZM359.76,15.16l3.7-1.44c.61.93,1.2,1.98,1.78,3.17.58,1.18.98,2.19,1.2,3.02l-3.89,1.63c-.22-.83-.6-1.85-1.13-3.05-.53-1.2-1.08-2.31-1.66-3.34h0ZM377.33,8.15l4.32,1.06c-.9,2.4-2.1,4.68-3.6,6.84s-3.06,3.98-4.66,5.45c-.26-.26-.61-.55-1.06-.89s-.91-.66-1.39-.96-.91-.55-1.3-.74c1.66-1.31,3.17-2.91,4.51-4.8s2.4-3.87,3.17-5.95h0ZM371.18,22.55h4.46v30.43h-4.46v-30.43ZM376.22,12.42h19.06v3.55h-19.06v-3.55ZM380.21,15.16l3.74-1.39c.77.93,1.55,1.98,2.35,3.14.8,1.17,1.39,2.18,1.78,3.05l-3.94,1.58c-.32-.9-.86-1.94-1.61-3.14-.75-1.2-1.53-2.28-2.33-3.24h0ZM389.23,36.9h4.56c-.03.83-.06,1.41-.1,1.73-.29,3.26-.61,5.73-.96,7.39s-.85,2.82-1.49,3.46c-.45.48-.94.82-1.46,1.01-.53.19-1.14.32-1.85.38-.64.06-1.51.1-2.62.1s-2.26-.03-3.48-.1c-.03-.64-.16-1.35-.38-2.14-.22-.78-.51-1.45-.86-1.99,1.09.1,2.12.16,3.1.19s1.69.05,2.14.05c.38,0,.7-.02.96-.07.26-.05.5-.17.72-.36.38-.38.71-1.26.98-2.62.27-1.36.52-3.51.74-6.46v-.58h0Z"/>
  <path class="cls-1" d="M399.5,27.74h44.16v4.99h-44.16v-4.99Z"/>
  <path class="cls-1" d="M448.03,23.18h43.01v4.27h-43.01v-4.27ZM457.44,28.55l4.7,1.49c-.83,1.38-1.8,2.75-2.9,4.13-1.1,1.38-2.25,2.66-3.43,3.86s-2.37,2.25-3.55,3.14c-.29-.29-.68-.62-1.18-.98-.5-.37-1-.73-1.51-1.08-.51-.35-.98-.62-1.39-.82,1.79-1.22,3.52-2.69,5.18-4.42,1.66-1.73,3.02-3.5,4.08-5.33h0ZM478.8,35.37l4.66,1.39c-1.09,2.62-2.5,4.89-4.25,6.79-1.74,1.9-3.83,3.5-6.26,4.78-2.43,1.28-5.21,2.33-8.33,3.14s-6.63,1.45-10.54,1.9c-.16-.74-.45-1.51-.86-2.33-.42-.82-.85-1.5-1.3-2.04,4.77-.42,8.94-1.11,12.5-2.09,3.57-.98,6.54-2.39,8.93-4.25,2.38-1.86,4.2-4.29,5.45-7.3h0ZM454.89,11.99h4.56v12.82h-4.56v-12.82ZM467.28,27.02h4.56v10.61c0,1.09-.14,1.94-.43,2.57-.29.62-.86,1.11-1.73,1.46-.83.29-1.87.46-3.12.53-1.25.06-2.78.1-4.61.1-.06-.61-.24-1.3-.53-2.06s-.58-1.46-.86-2.06c.83.03,1.65.06,2.45.07.8.02,1.5.02,2.11.02h1.25c.35-.03.59-.1.72-.19.13-.1.19-.27.19-.53v-10.51h0ZM467.28,8.44h4.66v17.04h-4.66V8.44ZM470.01,13.58h16.37v4.13h-16.37s0-4.13,0-4.13ZM477.84,30.76l3.65-2.3c1.22.96,2.44,2.04,3.67,3.24s2.38,2.4,3.43,3.6c1.06,1.2,1.89,2.3,2.5,3.29l-3.94,2.64c-.58-.99-1.37-2.1-2.38-3.34-1.01-1.23-2.12-2.47-3.34-3.72s-2.42-2.38-3.6-3.41h.01Z"/>
  <path class="cls-1" d="M502.8,37.14c1.41,0,2.67.34,3.79,1.03s2.02,1.59,2.69,2.71,1.01,2.38,1.01,3.79-.34,2.63-1.01,3.77-1.57,2.04-2.69,2.71-2.38,1.01-3.79,1.01-2.63-.34-3.77-1.01c-1.14-.67-2.05-1.58-2.74-2.71-.69-1.14-1.03-2.39-1.03-3.77s.34-2.67,1.03-3.79c.69-1.12,1.6-2.02,2.74-2.71,1.14-.69,2.39-1.03,3.77-1.03ZM502.8,49.29c1.28,0,2.37-.45,3.26-1.34.9-.9,1.34-2,1.34-3.31,0-.83-.2-1.59-.6-2.28s-.95-1.24-1.66-1.66c-.7-.42-1.49-.62-2.35-.62s-1.6.21-2.3.62c-.7.42-1.26.97-1.68,1.66-.42.69-.62,1.46-.62,2.33s.21,1.61.62,2.33c.42.72.97,1.28,1.66,1.68s1.46.6,2.33.6h0Z"/>
  <path class="cls-1" d="M129.58,67.23l4.32,1.39c-1.12,2.78-2.45,5.54-3.98,8.28-1.54,2.74-3.19,5.3-4.97,7.7s-3.61,4.51-5.5,6.34c-.16-.38-.39-.86-.7-1.42-.3-.56-.63-1.14-.98-1.73-.35-.59-.67-1.06-.96-1.42,1.7-1.54,3.33-3.32,4.9-5.35,1.57-2.03,3.03-4.23,4.39-6.6,1.36-2.37,2.52-4.77,3.48-7.2h0ZM124.35,80.62l4.42-4.42.05.05v35.33h-4.46v-30.96h0ZM131.17,82.06h31.1v4.42h-31.1v-4.42ZM132.41,105.39h29.04v4.37h-29.04s0-4.37,0-4.37ZM144.46,67.95h4.66v40.27h-4.66s0-40.27,0-40.27Z"/>
  <path class="cls-1" d="M184.45,79.85l5.14.91c-1.12,4.83-2.59,9.19-4.42,13.08-1.82,3.89-4.02,7.3-6.6,10.25-2.58,2.94-5.61,5.46-9.1,7.54-.26-.35-.64-.75-1.15-1.2s-1.03-.91-1.56-1.39c-.53-.48-1-.85-1.42-1.1,5.22-2.69,9.35-6.39,12.41-11.11s5.29-10.38,6.7-16.97h0ZM174.75,69.92h13.63v4.61h-13.63v-4.61ZM186.13,69.92h4.66c0,1.47.06,3.18.17,5.11.11,1.94.38,4,.79,6.19.42,2.19,1.06,4.46,1.92,6.79.86,2.34,2.01,4.66,3.43,6.96s3.22,4.54,5.4,6.7c2.18,2.16,4.8,4.15,7.87,5.98-.32.26-.72.62-1.2,1.08s-.94.95-1.39,1.46-.8.96-1.06,1.34c-3.14-1.92-5.82-4.04-8.06-6.36-2.24-2.32-4.12-4.78-5.64-7.37-1.52-2.59-2.74-5.2-3.67-7.82s-1.62-5.17-2.09-7.63c-.46-2.46-.77-4.76-.91-6.89-.14-2.13-.22-3.98-.22-5.54Z"/>
  <path class="cls-1" d="M225.92,81.58c-.42.06-1.02.14-1.82.24s-1.68.21-2.64.34-1.93.26-2.9.38c-.98.13-1.9.26-2.76.38l-.48-4.9c.61.03,1.18.04,1.73.02.54-.02,1.17-.04,1.87-.07.7-.06,1.56-.15,2.57-.26,1.01-.11,2.06-.24,3.14-.38,1.09-.14,2.11-.3,3.07-.48s1.71-.36,2.26-.55l1.58,2.02c-.26.38-.57.86-.94,1.42s-.74,1.13-1.1,1.7c-.37.58-.68,1.09-.94,1.54l-2.06,7.63c-.54.83-1.21,1.82-1.99,2.98s-1.61,2.36-2.47,3.62-1.72,2.51-2.57,3.74c-.85,1.23-1.62,2.33-2.33,3.29l-2.98-4.18c.58-.74,1.27-1.63,2.09-2.69s1.66-2.18,2.54-3.36c.88-1.18,1.75-2.37,2.62-3.55.86-1.18,1.65-2.28,2.35-3.29.7-1.01,1.26-1.85,1.68-2.52l.14-1.97.34-1.1h0ZM225.44,73.08c0-.61,0-1.25-.02-1.92s-.07-1.33-.17-1.97l5.57.19c-.13.67-.3,1.7-.5,3.07-.21,1.38-.41,2.98-.6,4.8s-.38,3.74-.55,5.76c-.18,2.02-.31,4.02-.41,6s-.14,3.82-.14,5.52v3.98c0,1.28.02,2.56.07,3.84s.1,2.66.17,4.13c.03.42.07.94.12,1.56.05.62.09,1.19.12,1.7h-5.18c.06-.51.1-1.07.12-1.68s.02-1.1.02-1.49c0-1.54,0-2.94.02-4.2.02-1.26.03-2.58.05-3.94s.06-2.97.12-4.82c0-.74.03-1.7.1-2.88.06-1.18.14-2.5.24-3.94s.19-2.9.29-4.37c.1-1.47.18-2.86.26-4.18.08-1.31.15-2.43.22-3.36.06-.93.1-1.54.1-1.82l-.02.02ZM258.61,104.48c-1.22,1.18-2.56,2.12-4.03,2.81-1.47.69-3.1,1.03-4.9,1.03-1.7,0-3.06-.56-4.08-1.68s-1.54-2.75-1.54-4.9c0-1.31.09-2.74.26-4.27.18-1.54.38-3.1.6-4.68s.43-3.1.62-4.54.29-2.72.29-3.84c0-1.31-.32-2.27-.96-2.88s-1.54-.91-2.69-.91-2.37.35-3.74,1.06c-1.38.7-2.78,1.64-4.22,2.81s-2.83,2.43-4.18,3.79c-1.34,1.36-2.54,2.7-3.6,4.01l.05-5.9c.58-.64,1.34-1.4,2.28-2.28s2.01-1.78,3.19-2.71c1.18-.93,2.44-1.79,3.77-2.59,1.33-.8,2.66-1.45,3.98-1.94,1.33-.5,2.6-.74,3.82-.74,1.6,0,2.92.29,3.96.86,1.04.58,1.82,1.37,2.33,2.38.51,1.01.77,2.18.77,3.53,0,1.18-.09,2.54-.26,4.06-.18,1.52-.38,3.07-.6,4.66-.22,1.58-.42,3.14-.6,4.66-.18,1.52-.26,2.9-.26,4.15,0,.7.18,1.31.55,1.82.37.51.92.77,1.66.77,1.06,0,2.17-.33,3.34-.98,1.17-.66,2.33-1.58,3.48-2.76l.72,5.23v-.03Z"/>
  <path class="cls-1" d="M272.19,71.26c-.1.29-.22.66-.36,1.13s-.27.93-.38,1.39-.2.84-.26,1.13c-.16.8-.34,1.77-.55,2.9-.21,1.14-.42,2.37-.62,3.7-.21,1.33-.4,2.67-.58,4.03-.18,1.36-.32,2.68-.43,3.96-.11,1.28-.17,2.45-.17,3.5,0,.83.02,1.67.07,2.52s.12,1.72.22,2.62c.29-.64.58-1.32.86-2.04.29-.72.58-1.43.86-2.14.29-.7.56-1.34.82-1.92l2.4,1.92c-.42,1.18-.86,2.5-1.34,3.94s-.9,2.81-1.27,4.1c-.37,1.3-.63,2.34-.79,3.14-.06.32-.13.7-.19,1.13s-.08.79-.05,1.08c0,.22,0,.5.02.84s.04.65.07.94l-4.37.29c-.48-1.66-.9-3.86-1.25-6.58s-.53-5.7-.53-8.93c0-1.79.08-3.61.24-5.45s.35-3.62.58-5.35c.22-1.73.46-3.31.7-4.75.24-1.44.42-2.64.55-3.6.1-.61.18-1.26.26-1.97.08-.7.14-1.38.17-2.02l5.33.48h-.01ZM283.28,94.68c-.19.83-.34,1.58-.46,2.26-.11.67-.17,1.34-.17,2.02,0,.54.12,1.06.36,1.54s.64.9,1.2,1.25,1.33.63,2.3.84c.98.21,2.18.31,3.62.31,2.18,0,4.22-.1,6.12-.31s3.85-.54,5.83-.98l.1,5.14c-1.5.29-3.26.52-5.26.7s-4.3.26-6.89.26c-4.06,0-7.06-.66-9-1.99-1.94-1.33-2.9-3.16-2.9-5.5,0-.86.06-1.77.19-2.71s.34-2.01.62-3.19l4.32.38.02-.02ZM280.54,74.72c1.41.22,3,.38,4.78.48,1.78.1,3.61.13,5.5.1s3.7-.1,5.42-.19c1.73-.1,3.22-.22,4.46-.38v4.9c-1.38.13-2.93.23-4.66.31-1.73.08-3.51.12-5.35.12s-3.64-.04-5.4-.12-3.33-.18-4.7-.31l-.05-4.9h0Z"/>
  <path class="cls-1" d="M319.71,101.31c1.09,1.66,2.6,2.9,4.54,3.72,1.94.82,4.23,1.27,6.89,1.37,1.38.06,3.01.1,4.9.12,1.89.02,3.89,0,6-.05s4.16-.1,6.14-.17c1.98-.06,3.73-.16,5.23-.29-.19.35-.38.81-.58,1.37s-.37,1.13-.53,1.7c-.16.58-.29,1.1-.38,1.58-1.38.06-2.97.11-4.78.14s-3.68.06-5.62.07c-1.94.02-3.82.02-5.64,0s-3.42-.06-4.8-.12c-3.04-.13-5.64-.62-7.8-1.46-2.16-.85-4.02-2.22-5.59-4.1-1.09.99-2.22,1.98-3.38,2.98-1.17.99-2.41,2.02-3.72,3.07l-2.3-4.7c1.12-.7,2.33-1.52,3.62-2.45s2.52-1.86,3.67-2.78h4.13,0ZM319.71,85.95v17.33h-4.42v-13.1h-6.19v-4.22h10.61ZM309.39,71.02l3.36-2.74c1.02.64,2.07,1.39,3.14,2.26,1.07.86,2.06,1.74,2.95,2.64.9.9,1.63,1.73,2.21,2.5l-3.6,2.98c-.51-.77-1.21-1.61-2.09-2.52-.88-.91-1.84-1.82-2.88-2.71-1.04-.9-2.07-1.7-3.1-2.4h.01ZM333.29,83.93l3.5,1.2c-.9,2.24-2.03,4.43-3.41,6.58-1.38,2.14-2.87,4.11-4.49,5.9s-3.29,3.3-5.02,4.51c-.22-.38-.52-.8-.89-1.25s-.75-.88-1.15-1.3c-.4-.42-.78-.77-1.13-1.06,1.7-.96,3.34-2.22,4.94-3.77,1.6-1.55,3.06-3.26,4.37-5.14,1.31-1.87,2.4-3.77,3.26-5.69l.02.02ZM321.73,82.06h30.43v4.18h-30.43v-4.18h0ZM323.21,70.88l3.84-1.44c.67.93,1.3,1.95,1.9,3.07.59,1.12,1.11,2.21,1.56,3.26.45,1.06.77,2.03.96,2.93l-4.13,1.63c-.16-.86-.45-1.84-.86-2.93-.42-1.09-.9-2.2-1.46-3.34-.56-1.14-1.16-2.2-1.8-3.19h0ZM334.45,67.8h4.51v36.77h-4.51v-36.77ZM340.16,84.08c.9,1.89,2.02,3.74,3.36,5.57,1.34,1.82,2.84,3.48,4.49,4.97s3.32,2.71,5.02,3.67c-.35.26-.73.6-1.13,1.03s-.78.87-1.15,1.32-.66.86-.89,1.25c-1.73-1.15-3.41-2.61-5.04-4.37s-3.13-3.7-4.49-5.83c-1.36-2.13-2.5-4.3-3.43-6.5l3.26-1.1h0ZM346.69,69.05l4.42,1.63c-.58,1.12-1.18,2.26-1.82,3.43s-1.28,2.28-1.92,3.34-1.23,2-1.78,2.83l-3.55-1.49c.51-.86,1.06-1.86,1.66-3,.59-1.14,1.15-2.3,1.68-3.48s.97-2.27,1.32-3.26h-.01Z"/>
  <path class="cls-1" d="M369.01,81.58c-.45.06-1.07.14-1.87.24s-1.68.21-2.64.34-1.93.26-2.9.41c-.98.14-1.9.26-2.76.36l-.48-4.9c.61.03,1.18.04,1.73.02.54-.02,1.17-.04,1.87-.07.7-.06,1.56-.15,2.57-.26s2.06-.24,3.14-.38c1.09-.14,2.1-.3,3.05-.48.94-.18,1.69-.36,2.23-.55l1.63,2.02c-.26.38-.57.86-.94,1.42s-.74,1.13-1.1,1.7c-.37.58-.68,1.09-.94,1.54l-2.06,7.63c-.54.83-1.21,1.82-1.99,2.98s-1.61,2.36-2.47,3.62c-.86,1.26-1.72,2.51-2.57,3.74-.85,1.23-1.62,2.33-2.33,3.29l-2.98-4.18c.61-.74,1.31-1.63,2.11-2.69.8-1.06,1.65-2.18,2.54-3.38.9-1.2,1.77-2.38,2.62-3.55.85-1.17,1.62-2.26,2.33-3.29.7-1.02,1.26-1.87,1.68-2.54l.14-1.92.38-1.1v-.02ZM368.48,73.08c0-.61,0-1.25-.02-1.92s-.07-1.33-.17-1.97l5.62.19c-.16.67-.34,1.7-.53,3.07-.19,1.38-.39,2.98-.6,4.8s-.4,3.74-.58,5.76c-.18,2.02-.31,4.02-.41,6s-.14,3.82-.14,5.52v3.98c0,1.28.02,2.56.07,3.84.05,1.28.1,2.66.17,4.13.03.42.07.94.12,1.56.05.62.09,1.19.12,1.7h-5.18c.03-.42.06-.95.1-1.61.03-.66.05-1.18.05-1.56,0-1.54,0-2.94.02-4.2.02-1.26.03-2.58.05-3.94s.06-2.97.12-4.82c0-.74.03-1.7.1-2.88.06-1.18.14-2.5.24-3.94.1-1.44.19-2.9.29-4.37s.18-2.86.26-4.18c.08-1.31.15-2.43.22-3.36.06-.93.1-1.54.1-1.82l-.02.02ZM379.85,103.76c2.05-.32,3.98-.79,5.78-1.42,1.81-.62,3.41-1.44,4.8-2.45,1.39-1.01,2.47-2.26,3.24-3.74.77-1.49,1.14-3.21,1.1-5.16,0-.96-.18-1.9-.53-2.83s-.9-1.78-1.63-2.57c-.74-.78-1.64-1.41-2.71-1.87-1.07-.46-2.33-.7-3.77-.7-3.04,0-5.91.78-8.62,2.33-2.7,1.55-5.22,3.54-7.56,5.98v-5.33c2.91-2.72,5.83-4.63,8.76-5.74,2.93-1.1,5.66-1.66,8.18-1.66,2.34,0,4.48.51,6.43,1.54,1.95,1.02,3.51,2.47,4.68,4.34,1.17,1.87,1.75,4.07,1.75,6.6.03,2.43-.36,4.59-1.18,6.48s-1.98,3.54-3.5,4.94c-1.52,1.41-3.38,2.59-5.57,3.55-2.19.96-4.68,1.71-7.46,2.26l-2.21-4.56h.02Z"/>
  <path class="cls-1" d="M405.92,76.3c1.34,0,2.88-.02,4.61-.07s3.54-.1,5.45-.14c1.9-.05,3.81-.09,5.71-.12,1.9-.03,3.72-.06,5.45-.07,1.73-.02,3.28-.02,4.66-.02s2.74,0,4.18-.02,2.82-.02,4.13-.02,2.5,0,3.55.02c1.06.02,1.9.02,2.54.02l-.05,4.51c-1.41-.06-3.29-.13-5.64-.19-2.35-.06-5.29-.1-8.81-.1-2.14,0-4.34.02-6.58.07s-4.48.11-6.72.19-4.41.17-6.5.26c-2.1.1-4.06.21-5.88.34l-.1-4.66ZM431.45,90.36c0,2.34-.31,4.29-.94,5.86s-1.52,2.74-2.69,3.53c-1.17.78-2.57,1.18-4.2,1.18-.99,0-1.96-.18-2.9-.55s-1.81-.9-2.59-1.61c-.78-.7-1.41-1.58-1.87-2.62s-.7-2.25-.7-3.62c0-1.7.41-3.18,1.22-4.46.82-1.28,1.9-2.29,3.26-3.02,1.36-.74,2.86-1.1,4.49-1.1,1.95,0,3.59.44,4.92,1.32,1.33.88,2.33,2.08,3,3.6s1.01,3.24,1.01,5.16c0,1.6-.24,3.24-.72,4.92s-1.28,3.3-2.4,4.87-2.63,2.99-4.54,4.27c-1.9,1.28-4.28,2.34-7.13,3.17l-4.03-3.98c2.11-.48,4.03-1.09,5.76-1.82,1.73-.74,3.22-1.66,4.49-2.76,1.26-1.1,2.23-2.42,2.9-3.94.67-1.52,1.01-3.3,1.01-5.35,0-1.89-.42-3.27-1.27-4.15-.85-.88-1.88-1.32-3.1-1.32-.74,0-1.43.18-2.09.53s-1.19.86-1.61,1.54c-.42.67-.62,1.5-.62,2.5,0,1.31.44,2.35,1.32,3.12.88.77,1.88,1.15,3,1.15.93,0,1.72-.26,2.38-.79s1.11-1.36,1.37-2.5.19-2.6-.19-4.39l3.46,1.3v-.04ZM432.08,69.92c0,.22-.02.58-.07,1.06-.05.48-.09.95-.12,1.42-.03.46-.05.81-.05,1.03-.03.64-.06,1.49-.07,2.54-.02,1.06-.02,2.22-.02,3.5s0,2.57.02,3.86c.02,1.3.03,2.52.05,3.67s.02,2.11.02,2.88l-4.66-1.92v-5.42c0-1.18,0-2.38-.02-3.58-.02-1.2-.04-2.29-.07-3.26-.03-.98-.06-1.72-.1-2.23-.06-.8-.13-1.53-.19-2.18-.06-.66-.13-1.11-.19-1.37h5.47ZM438.56,68.76c.58.83,1.18,1.78,1.82,2.83.64,1.06,1.18,2.02,1.63,2.88l-3.26,1.44c-.51-.96-1.06-1.95-1.63-2.98-.58-1.02-1.18-1.97-1.82-2.83l3.26-1.34ZM444.65,67.47c.58.83,1.18,1.76,1.82,2.78s1.2,1.98,1.68,2.88l-3.31,1.44c-.48-.99-1.02-1.99-1.63-3-.61-1.01-1.22-1.93-1.82-2.76l3.26-1.34Z"/>
  <path class="cls-1" d="M457.81,110.57c-.99-1.22-2.09-2.46-3.29-3.74s-2.42-2.51-3.65-3.7c-1.23-1.18-2.41-2.24-3.53-3.17l3.94-3.46c1.15.93,2.37,2.01,3.65,3.24,1.28,1.23,2.54,2.5,3.77,3.79,1.23,1.3,2.3,2.49,3.19,3.58,0,0-4.08,3.46-4.08,3.46Z"/>
  <path class="cls-1" d="M56.69,128.86h5.82v19.14c0,2.6-.14,5.39-.42,8.37s-.82,5.99-1.62,9.03-1.98,5.95-3.54,8.73-3.64,5.27-6.24,7.47c-.28-.4-.68-.87-1.2-1.41-.52-.54-1.06-1.06-1.62-1.56-.56-.5-1.06-.89-1.5-1.17,2.36-2.04,4.23-4.28,5.61-6.72s2.41-4.96,3.09-7.56c.68-2.6,1.12-5.2,1.32-7.8s.3-5.08.3-7.44v-19.08h0ZM60.05,157.66h31.02v5.46h-31.02v-5.46ZM60.47,128.86h30.72v5.52h-30.72v-5.52ZM60.47,143.26h30.96v5.4h-30.96v-5.4ZM88.61,128.86h6v44.94c0,1.84-.27,3.25-.81,4.23s-1.43,1.71-2.67,2.19c-1.28.52-2.97.84-5.07.96s-4.75.18-7.95.18c-.08-.6-.26-1.26-.54-1.98s-.57-1.44-.87-2.16-.61-1.34-.93-1.86c1.56.08,3.09.13,4.59.15,1.5.02,2.82.02,3.96,0s1.95-.03,2.43-.03c.68,0,1.16-.13,1.44-.39s.42-.71.42-1.35v-44.88h0Z"/>
  <path class="cls-1" d="M156.17,134.8h5.94c-.12,3.4-.3,6.87-.54,10.41-.24,3.54-.71,7.04-1.41,10.5s-1.72,6.78-3.06,9.96c-1.34,3.18-3.15,6.12-5.43,8.82-2.28,2.7-5.18,5.07-8.7,7.11-.44-.76-1.05-1.57-1.83-2.43-.78-.86-1.55-1.57-2.31-2.13,3.32-1.76,6.04-3.86,8.16-6.3,2.12-2.44,3.78-5.1,4.98-7.98,1.2-2.88,2.09-5.89,2.67-9.03s.96-6.31,1.14-9.51.31-6.34.39-9.42h0ZM140.87,130.18h52.74v5.58h-52.74v-5.58ZM159.83,146.92h24.66v5.52h-24.66v-5.52ZM182.51,146.92h5.88c0,.68,0,1.23-.03,1.65s-.05.75-.09.99c-.2,4.8-.44,8.88-.72,12.24s-.59,6.16-.93,8.4c-.34,2.24-.73,4.02-1.17,5.34-.44,1.32-.94,2.3-1.5,2.94-.8.88-1.65,1.49-2.55,1.83s-1.97.57-3.21.69c-1.12.12-2.65.16-4.59.12-1.94-.04-3.93-.1-5.97-.18-.04-.84-.24-1.79-.6-2.85-.36-1.06-.82-1.97-1.38-2.73,2.16.16,4.2.26,6.12.3,1.92.04,3.3.06,4.14.06.72.04,1.29,0,1.71-.09.42-.1.81-.31,1.17-.63.64-.6,1.18-1.89,1.62-3.87s.83-4.86,1.17-8.64.65-8.63.93-14.55v-1.02h0Z"/>
  <path class="cls-1" d="M202.37,129.82h47.04v5.64h-41.34v46.08h-5.7v-51.72h0ZM205.49,152.02h43.98v5.64h-43.98v-5.64ZM224.21,132.76h5.64v22.08h-5.64v-22.08ZM246.77,129.82h5.7v44.7c0,1.64-.21,2.92-.63,3.84s-1.21,1.62-2.37,2.1c-1.08.48-2.52.78-4.32.9s-4.04.18-6.72.18c-.08-.56-.24-1.18-.48-1.86-.24-.68-.5-1.36-.78-2.04s-.58-1.28-.9-1.8c1.32.04,2.58.07,3.78.09,1.2.02,2.27.02,3.21,0s1.59-.03,1.95-.03c.56,0,.96-.11,1.2-.33.24-.22.36-.59.36-1.11v-44.64h0Z"/>
  <path class="cls-1" d="M284.32,128.74c-.24,1.16-.57,2.57-.99,4.23-.42,1.66-1.03,3.53-1.83,5.61-.68,1.68-1.51,3.4-2.49,5.16-.98,1.76-1.99,3.36-3.03,4.8.68-.4,1.47-.73,2.37-.99.9-.26,1.82-.46,2.76-.6s1.79-.21,2.55-.21c2.4,0,4.42.69,6.06,2.07,1.64,1.38,2.46,3.37,2.46,5.97v2.94c0,1.16.02,2.38.06,3.66s.07,2.54.09,3.78.03,2.32.03,3.24h-5.7c.04-.76.08-1.65.12-2.67s.07-2.09.09-3.21c.02-1.12.03-2.2.03-3.24v-2.76c-.04-1.8-.58-3.1-1.62-3.9-1.04-.8-2.26-1.2-3.66-1.2-1.8,0-3.59.42-5.37,1.26s-3.31,1.86-4.59,3.06c-.84.84-1.71,1.8-2.61,2.88s-1.85,2.26-2.85,3.54l-5.16-3.84c2.76-2.6,5.1-5.08,7.02-7.44,1.92-2.36,3.51-4.61,4.77-6.75,1.26-2.14,2.25-4.17,2.97-6.09.64-1.64,1.16-3.31,1.56-5.01s.64-3.29.72-4.77l6.24.48h0ZM262.84,134.8c1.6.24,3.36.41,5.28.51,1.92.1,3.6.15,5.04.15,2.68,0,5.58-.06,8.7-.18,3.12-.12,6.27-.32,9.45-.6,3.18-.28,6.19-.68,9.03-1.2v5.58c-2.12.28-4.38.54-6.78.78s-4.84.43-7.32.57c-2.48.14-4.86.24-7.14.3-2.28.06-4.36.09-6.24.09-.84,0-1.83,0-2.97-.03-1.14-.02-2.32-.07-3.54-.15-1.22-.08-2.39-.14-3.51-.18v-5.64h0ZM309.47,150.4c-.56.2-1.21.42-1.95.66-.74.24-1.47.5-2.19.78s-1.38.54-1.98.78c-2.04.8-4.41,1.76-7.11,2.88-2.7,1.12-5.47,2.42-8.31,3.9-1.92,1-3.58,2-4.98,3-1.4,1-2.49,2.04-3.27,3.12s-1.17,2.26-1.17,3.54c0,1.04.24,1.88.72,2.52s1.15,1.13,2.01,1.47c.86.34,1.9.58,3.12.72s2.59.21,4.11.21c2.4,0,5.12-.14,8.16-.42s5.88-.66,8.52-1.14l-.18,6.06c-1.44.16-3.12.33-5.04.51s-3.89.32-5.91.42c-2.02.1-3.93.15-5.73.15-3,0-5.7-.28-8.1-.84s-4.3-1.53-5.7-2.91c-1.4-1.38-2.1-3.31-2.1-5.79,0-1.96.45-3.73,1.35-5.31s2.08-3.01,3.54-4.29c1.46-1.28,3.09-2.46,4.89-3.54,1.8-1.08,3.58-2.06,5.34-2.94,1.88-1,3.63-1.87,5.25-2.61s3.14-1.41,4.56-2.01c1.42-.6,2.75-1.2,3.99-1.8,1.04-.44,2.02-.87,2.94-1.29s1.84-.87,2.76-1.35l2.46,5.52h0Z"/>
  <path class="cls-1" d="M312.22,173.26c1.96-.16,4.2-.35,6.72-.57s5.18-.46,7.98-.72c2.8-.26,5.6-.53,8.4-.81l.06,4.62c-4.08.44-8.1.88-12.06,1.32s-7.52.82-10.68,1.14l-.42-4.98ZM312.76,148.78h53.22v4.56h-53.22v-4.56ZM317.74,150.34h5.22v24.48h-5.22v-24.48ZM319.84,127.78h39.3v18.12h-39.3s0-18.12,0-18.12ZM321.16,156.76h14.28v4.08h-14.28v-4.08ZM321.16,164.32h14.28v4.02h-14.28v-4.02ZM325.3,131.62v3.36h28.14v-3.36h-28.14ZM325.3,138.64v3.48h28.14v-3.48h-28.14ZM332.51,150.22h5.46v31.32h-5.46v-31.32ZM358.66,156.46h1.02l.96-.18,3.48,1.38c-1.24,4.12-3.03,7.72-5.37,10.8s-5.05,5.68-8.13,7.8c-3.08,2.12-6.4,3.82-9.96,5.1-.28-.68-.73-1.47-1.35-2.37s-1.19-1.61-1.71-2.13c2.36-.68,4.64-1.63,6.84-2.85,2.2-1.22,4.23-2.67,6.09-4.35,1.86-1.68,3.5-3.55,4.92-5.61s2.49-4.31,3.21-6.75v-.84h0ZM339.76,156.46h20.58v4.44h-20.58v-4.44ZM346.55,160.54c1.72,4,4.37,7.46,7.95,10.38,3.58,2.92,7.85,4.98,12.81,6.18-.36.32-.76.75-1.2,1.29s-.85,1.08-1.23,1.62-.69,1.03-.93,1.47c-5.24-1.52-9.71-3.97-13.41-7.35s-6.55-7.47-8.55-12.27l4.56-1.32h0Z"/>
  <path class="cls-1" d="M385.49,168.58c1.36,2.08,3.25,3.63,5.67,4.65,2.42,1.02,5.29,1.59,8.61,1.71,1.72.08,3.76.13,6.12.15,2.36.02,4.86,0,7.5-.06s5.2-.13,7.68-.21c2.48-.08,4.66-.2,6.54-.36-.24.44-.48,1.01-.72,1.71-.24.7-.46,1.41-.66,2.13s-.36,1.38-.48,1.98c-1.72.08-3.71.14-5.97.18s-4.6.07-7.02.09c-2.42.02-4.77.02-7.05,0s-4.28-.07-6-.15c-3.8-.16-7.05-.77-9.75-1.83s-5.03-2.77-6.99-5.13c-1.36,1.24-2.77,2.48-4.23,3.72-1.46,1.24-3.01,2.52-4.65,3.84l-2.88-5.88c1.4-.88,2.91-1.9,4.53-3.06s3.15-2.32,4.59-3.48h5.16ZM385.49,149.38v21.66h-5.52v-16.38h-7.74v-5.28h13.26,0ZM372.59,130.72l4.2-3.42c1.28.8,2.59,1.74,3.93,2.82s2.57,2.18,3.69,3.3c1.12,1.12,2.04,2.16,2.76,3.12l-4.5,3.72c-.64-.96-1.51-2.01-2.61-3.15-1.1-1.14-2.3-2.27-3.6-3.39-1.3-1.12-2.59-2.12-3.87-3h0ZM402.47,154.54l4.14,1.56c-1.12,2.08-2.53,4.1-4.23,6.06-1.7,1.96-3.54,3.75-5.52,5.37s-3.97,2.95-5.97,3.99c-.28-.44-.63-.93-1.05-1.47-.42-.54-.86-1.06-1.32-1.56-.46-.5-.89-.93-1.29-1.29,1.96-.8,3.91-1.86,5.85-3.18,1.94-1.32,3.73-2.81,5.37-4.47,1.64-1.66,2.98-3.33,4.02-5.01h0ZM388.55,131.62h37.62v4.86h-37.62v-4.86ZM390.82,140.68h32.88v15.48h-32.88v-15.48ZM396.05,145.12v6.6h22.14v-6.6h-22.14ZM404.15,125.92h5.52v47.04h-5.52s0-47.04,0-47.04ZM410.63,154.54c1.16,1.6,2.63,3.2,4.41,4.8s3.68,3.06,5.7,4.38c2.02,1.32,4.01,2.4,5.97,3.24-.4.32-.85.75-1.35,1.29s-.97,1.08-1.41,1.62-.8,1.05-1.08,1.53c-1.92-1.08-3.89-2.43-5.91-4.05-2.02-1.62-3.93-3.39-5.73-5.31-1.8-1.92-3.32-3.86-4.56-5.82l3.96-1.68Z"/>
  <path class="cls-1" d="M444.7,168.76c1.28,2.12,3.11,3.68,5.49,4.68s5.25,1.58,8.61,1.74c1.72.04,3.81.07,6.27.09,2.46.02,5.04.02,7.74,0,2.7-.02,5.33-.08,7.89-.18,2.56-.1,4.8-.21,6.72-.33-.2.4-.42.93-.66,1.59s-.46,1.34-.66,2.04-.36,1.33-.48,1.89c-1.76.08-3.81.15-6.15.21-2.34.06-4.77.1-7.29.12-2.52.02-4.95,0-7.29-.03-2.34-.04-4.39-.08-6.15-.12-3.8-.16-7.03-.77-9.69-1.83s-4.91-2.77-6.75-5.13c-1.28,1.24-2.59,2.48-3.93,3.72s-2.77,2.52-4.29,3.84l-2.76-5.64c1.28-.92,2.66-1.96,4.14-3.12,1.48-1.16,2.9-2.34,4.26-3.54h4.98ZM444.7,149.38v21.66h-5.46v-16.38h-7.26v-5.28h12.72ZM432.4,130.54l4.32-3.18c1.2.92,2.43,1.95,3.69,3.09s2.41,2.28,3.45,3.42,1.88,2.21,2.52,3.21l-4.68,3.54c-.56-1-1.35-2.09-2.37-3.27-1.02-1.18-2.14-2.37-3.36-3.57-1.22-1.2-2.41-2.28-3.57-3.24h0ZM447.16,137.92h39.3v4.26h-39.3v-4.26ZM447.88,163.42h38.04v4.2h-38.04v-4.2ZM448.3,147.94h37.38v4.2h-37.38v-4.2ZM450.65,155.56h32.7v4.08h-32.7v-4.08ZM451.18,129.94h31.32v4.14h-31.32v-4.14ZM454.55,142.6l4.92-1.14c.56.92,1.1,1.94,1.62,3.06s.88,2.1,1.08,2.94l-5.16,1.26c-.12-.84-.42-1.83-.9-2.97s-1-2.19-1.56-3.15ZM463.78,125.86h5.58v14.7h-5.58v-14.7ZM463.78,149.92h5.58v22.68h-5.58v-22.68h0ZM473.38,141.34l5.52,1.38c-.64,1.16-1.26,2.26-1.86,3.3-.6,1.04-1.16,1.96-1.68,2.76l-4.56-1.32c.44-.88.91-1.91,1.41-3.09s.89-2.19,1.17-3.03h0Z"/>
  <path class="cls-1" d="M496.55,135.52h5.94v17.22c0,2.2-.08,4.58-.24,7.14s-.46,5.17-.9,7.83-1.08,5.23-1.92,7.71-1.96,4.7-3.36,6.66c-.28-.36-.73-.8-1.35-1.32s-1.24-1.01-1.86-1.47-1.15-.81-1.59-1.05c1.64-2.4,2.83-5.09,3.57-8.07.74-2.98,1.21-5.99,1.41-9.03s.3-5.86.3-8.46v-17.16h0ZM499.97,148.36h14.4v5.22h-14.4v-5.22ZM500.32,135.52h46.38v5.58h-46.38v-5.58ZM512.2,148.36h5.52c0,.56-.01,1.02-.03,1.38s-.03.66-.03.9c-.08,4.36-.18,7.92-.3,10.68-.12,2.76-.3,4.87-.54,6.33s-.58,2.47-1.02,3.03c-.52.64-1.08,1.1-1.68,1.38s-1.34.48-2.22.6c-.76.12-1.78.18-3.06.18s-2.64-.02-4.08-.06c-.04-.84-.2-1.76-.48-2.76s-.64-1.86-1.08-2.58c1.24.12,2.4.2,3.48.24,1.08.04,1.88.06,2.4.06.4,0,.75-.05,1.05-.15.3-.1.57-.27.81-.51.28-.36.5-1.15.66-2.37s.29-3.07.39-5.55.17-5.78.21-9.9v-.9h0ZM537.53,145.12l5.7,1.38c-2.52,7.8-5.99,14.64-10.41,20.52s-9.65,10.64-15.69,14.28c-.24-.44-.62-.95-1.14-1.53s-1.04-1.16-1.56-1.74-1-1.05-1.44-1.41c5.96-3.2,11-7.48,15.12-12.84s7.26-11.58,9.42-18.66ZM521.26,125.92h5.94c-.04,5.28.14,10.35.54,15.21.4,4.86.98,9.37,1.74,13.53s1.66,7.78,2.7,10.86c1.04,3.08,2.21,5.48,3.51,7.2s2.63,2.58,3.99,2.58c.8,0,1.4-.84,1.8-2.52.4-1.68.68-4.46.84-8.34.68.64,1.48,1.26,2.4,1.86.92.6,1.76,1.04,2.52,1.32-.32,3.56-.78,6.32-1.38,8.28-.6,1.96-1.43,3.32-2.49,4.08s-2.43,1.14-4.11,1.14c-2.08,0-3.97-.7-5.67-2.1-1.7-1.4-3.22-3.38-4.56-5.94s-2.48-5.56-3.42-9-1.73-7.22-2.37-11.34-1.12-8.45-1.44-12.99c-.32-4.54-.5-9.15-.54-13.83h0ZM529.55,129.16l3.48-3.42c1.2.6,2.46,1.29,3.78,2.07,1.32.78,2.56,1.57,3.72,2.37s2.12,1.54,2.88,2.22l-3.6,3.84c-.72-.68-1.65-1.44-2.79-2.28-1.14-.84-2.36-1.68-3.66-2.52-1.3-.84-2.57-1.6-3.81-2.28h0Z"/>
  <path class="cls-1" d="M564.05,161.74c1.76,0,3.34.43,4.74,1.29,1.4.86,2.52,1.99,3.36,3.39.84,1.4,1.26,2.98,1.26,4.74s-.42,3.29-1.26,4.71c-.84,1.42-1.96,2.55-3.36,3.39-1.4.84-2.98,1.26-4.74,1.26s-3.29-.42-4.71-1.26c-1.42-.84-2.56-1.97-3.42-3.39s-1.29-2.99-1.29-4.71.43-3.34,1.29-4.74c.86-1.4,2-2.53,3.42-3.39s2.99-1.29,4.71-1.29ZM564.05,176.92c1.6,0,2.96-.56,4.08-1.68s1.68-2.5,1.68-4.14c0-1.04-.25-1.99-.75-2.85s-1.19-1.55-2.07-2.07-1.86-.78-2.94-.78-2,.26-2.88.78-1.58,1.21-2.1,2.07c-.52.86-.78,1.83-.78,2.91s.26,2.01.78,2.91c.52.9,1.21,1.6,2.07,2.1s1.83.75,2.91.75h0Z"/>
  <rect class="cls-1" x="41.75" y="189.79" width="535.68" height="2.47"/>
  <path class="cls-1" d="M118.15,178c-2.42,0-4.57-.31-6.46-.94-1.88-.63-3.57-1.46-5.04-2.5-1.48-1.04-2.83-2.21-4.06-3.51l3.29-4.57c1.5,1.63,3.17,2.95,5.02,3.97,1.84,1.02,4.05,1.53,6.63,1.53,1.77,0,3.39-.39,4.87-1.16,1.48-.77,2.67-1.89,3.57-3.35.9-1.46,1.36-3.21,1.36-5.26s-.41-3.71-1.24-5.13c-.83-1.42-1.96-2.5-3.4-3.26-1.44-.75-3.08-1.13-4.93-1.13-1.73,0-3.3.21-4.7.63-1.4.42-2.83,1.15-4.3,2.19l-3.29-2.19,1.33-22.34h25.48v6.13h-19.78l-.92,12.14c1.19-.67,2.41-1.17,3.66-1.5,1.25-.33,2.66-.5,4.24-.5,2.61,0,5.03.53,7.24,1.6,2.21,1.06,3.98,2.69,5.3,4.88,1.33,2.19,1.99,4.93,1.99,8.23,0,2.59-.43,4.87-1.3,6.85-.86,1.98-2.04,3.65-3.52,5.01-1.48,1.36-3.17,2.39-5.07,3.1s-3.89,1.06-5.97,1.06Z"/>
</svg>