<?xml version="1.0" encoding="UTF-8"?>
<svg id="_レイヤー_1" data-name="レイヤー 1" xmlns="http://www.w3.org/2000/svg" viewBox="0 0 891.43 342.72">
  <defs>
    <style>
      .cls-1 {
        fill: #ff7842;
      }
    </style>
  </defs>
  <path class="cls-1" d="M326.06,142.21v-37.94c.43-2.26-1.48-5.71-4.98-7.03-.62-.31-1.36-.57-2.24-.73h-57.36c9.1-6.47,18-12.38,23.23-22.76,9.71-19.27-1.28-45-22.13-48.52-24.62-5.35-50.15,27.04-66.37,44.62-1.25,1.17-2.5,2.27-3.73,3.29-2.3-1.89-4.63-4.06-7-6.41-8.81-9.77-19.88-22.56-31.86-31.43-8.25-6.33-17.08-10.73-26.7-10.7-23.9.08-37.34,28.23-26.91,48.93,5.28,10.49,14.31,16.4,23.52,22.96h-57.44c-5.03.31-7.95,4.82-7.43,7.56v38.35c-.23,9-.37,17.95-.16,26.68.02.95.08,1.82.16,2.64v2.21c1.12,4.86,3.35,6.69,6.32,7.34,2.47.75,5.65.76,9.49.55v97.65c-.11,4.28-.17,8.6.27,12.86.31,3.01.8,6.83,2.75,9.25.34.42.7.81,1.06,1.21,2.8,3.06,7.3,5.32,11.19,6.79,0,0,203.37,0,203.47,0,2.71,0,5.32-1.2,7.63-2.5,1.49-.84,3.08-1.73,4.41-2.81,1.55-1.26,2.34-2.74,3.09-4.54,2.01-4.79,2.19-12.13,1.8-23.24v-94.79c7.67-.02,13.78,1.68,15.91-7.55v-2.62c.08-.82.14-1.69.16-2.64.21-8.73.07-17.68-.16-26.68ZM120.83,61.71c-2.28-6.49-.22-14.9,7.51-14.95,9.71,1.5,26.63,18.36,37.83,30.05,3.27,3.56,6.04,6.65,7.94,8.71-2.27.18-4.95.09-7.91-.26-16.14-2.3-41.38-12.24-45.36-23.56ZM178.62,286.51h-79.99l-1.29-1.29v-103.5l17.47-.21,63.81.49v104.51ZM178.62,158.51h-96.06v-38.87h96.06v38.87ZM210.54,85.39c9.06-9.26,35.1-38.51,47.15-38.54.47,0,.92.03,1.35.1,5.51,1.75,6.83,8.88,4.84,14.55-4.74,13.49-39.71,25.03-53.44,23.99.03-.03.07-.07.1-.1ZM287.36,285.01l-1.5,1.5h-79.78v-104.3l81.28-.5v103.29ZM302.14,158.51h-96.06v-38.87h96.06v38.87Z"/>
  <g>
    <path class="cls-1" d="M421.89,85.16c0,1.65-1.35,3-3,3h-25c-1.65,0-3,1.35-3,3v82.77c0,1.65-1.35,3-3,3h-18.56c-1.65,0-3-1.35-3-3v-82.77c0-1.65-1.35-3-3-3h-24.85c-1.65,0-3-1.35-3-3v-13.94c0-1.65,1.35-3,3-3h80.42c1.65,0,3,1.35,3,3v13.94Z"/>
    <path class="cls-1" d="M473.78,117.91c0,1.65-1.26,2.52-2.81,1.94,0,0-3.43-1.29-7.27-1.29-5.21,0-9.27,1.91-12.2,5.72-2.93,3.82-4.03,12.6-4.03,12.6-.2,1.64-.37,4.33-.37,5.98v31.07c0,1.65-1.35,3-3,3h-17.95c-1.65,0-3-1.35-3-3v-71.62c0-1.65,1.35-3,3-3h17.95c1.65,0,3,1.35,3,3v8.4c0,1.65.07,3,.15,3s.75-1.21,1.48-2.69c0,0,3.16-6.41,6.51-9.04s7.64-4.04,12.63-4.04c2.53,0,3.02.13,3.02.13,1.59.43,2.9,2.13,2.9,3.78v16.06Z"/>
    <path class="cls-1" d="M555.48,141.94c0,1.65-1.35,3-3,3h-44.64c-1.65,0-2.71,1.32-2.36,2.93,0,0,1.27,5.84,4.02,8.61,3.55,3.58,9.1,5.36,16.64,5.36,8.54,0,19.76-4.87,19.76-4.87,1.51-.66,2.75.16,2.75,1.81v11.28c0,1.65-1.27,3.44-2.83,3.99,0,0-13.67,4.77-25.14,4.77-12.53,0-22.26-3.47-29.18-10.42-6.92-6.95-10.39-16.64-10.39-29.07s3.74-23.09,11.22-30.62c7.48-7.53,16.68-11.29,27.59-11.29s20.07,3.36,26.27,10.08c6.19,6.72,8.84,24.4,8.84,24.4.24,1.63.44,4.32.44,5.97v4.08ZM530.27,130.23c1.65,0,2.83-1.34,2.63-2.98,0,0-.92-7.36-3.52-10.13-2.24-2.38-5.44-3.57-9.6-3.57-3.84,0-7.16,1.59-9.97,4.78s-4.35,9-4.35,9c-.42,1.59.58,2.9,2.23,2.9h22.58Z"/>
    <path class="cls-1" d="M694.24,173.92c0,1.65-1.35,3-3,3h-17.88c-1.65,0-3-1.35-3-3v-38.27c0-1.65-.15-4.34-.33-5.98,0,0-.83-7.37-3.15-10.18-2.06-2.49-5.05-3.74-8.95-3.74s-7.15,1.69-9.63,5.08c-2.48,3.39-3.32,9.69-3.32,9.69-.22,1.64-.4,4.32-.4,5.97v37.44c0,1.65-1.35,3-3,3h-17.95c-1.65,0-3-1.35-3-3v-38.72c0-1.65-.15-4.34-.33-5.98,0,0-.77-6.96-2.98-9.7-2.03-2.51-4.99-3.77-8.89-3.77-4.09,0-7.37,1.62-9.82,4.85-2.45,3.24-3.31,10.21-3.31,10.21-.2,1.64-.37,4.33-.37,5.98v37.13c0,1.65-1.35,3-3,3h-17.95c-1.65,0-3-1.35-3-3v-71.62c0-1.65,1.35-3,3-3h17.95c1.65,0,3,1.35,3,3v6.13c0,1.65.07,3,.15,3s.99-1.06,2.01-2.35c0,0,4.09-5.16,8.56-7.77,4.47-2.6,9.36-3.9,14.67-3.9s9.65,1.09,13.3,3.28c4.02,2.41,7.69,8.62,7.69,8.62.84,1.42,2.35,1.51,3.35.21,0,0,4.3-5.58,8.27-7.99,4.54-2.74,9.86-4.12,15.98-4.12,8.88,0,15.43,2.89,19.64,8.65,1.73,2.37,3.06,5.22,4,8.56,1.12,3.98,1.51,11.02,1.51,11.02.09,1.65.17,4.35.17,6v42.29Z"/>
    <path class="cls-1" d="M777.75,173.92c0,1.65-1.35,3-3,3h-16.67c-1.65,0-3-1.35-3-3v-5.14c0-1.65-.07-3-.15-3s-.94,1.09-1.91,2.43c0,0-2.62,3.62-5.37,5.68-4.38,3.28-9.71,4.93-15.99,4.93-7.53,0-13.46-2.13-17.78-6.41-4.32-4.27-6.48-9.97-6.48-17.09,0-11.69,5.38-19.54,16.13-23.56,3.1-1.16,7.68-1.98,7.68-1.98,1.62-.29,4.29-.71,5.93-.93l15.13-2.01c1.64-.22,2.75-1.73,2.47-3.35,0,0-.87-5.05-3.61-7.16-2.28-1.75-5.51-2.62-9.68-2.62-9.25,0-23.68,6.96-23.68,6.96-1.49.72-2.7-.05-2.7-1.7v-12.04c0-1.65,1.25-3.51,2.78-4.14,0,0,5.12-2.1,10.91-3.41,5.79-1.31,11.05-1.97,15.8-1.97,14.42,0,24.14,4.69,29.17,14.06,1.51,2.82,2.6,6.07,3.26,9.75.51,2.85.65,6.33.65,6.33.07,1.65.12,4.35.12,6v40.39ZM754.75,148.35c.27-1.63.48-4.14.48-5.58s-1.34-2.44-2.98-2.23l-8.15,1.05c-1.64.21-4.29.68-5.9,1.04,0,0-3.14.71-5.06,2.11-2.46,1.8-3.69,4.39-3.69,7.77,0,2.73.95,4.97,2.84,6.71s4.46,2.62,7.69,2.62c4.5,0,8.16-1.55,10.99-4.66,2.83-3.11,3.76-8.83,3.76-8.83Z"/>
    <path class="cls-1" d="M795.91,176.74c-1.6-.41-2.9-2.1-2.9-3.75v-13.41c0-1.65,1.19-2.37,2.65-1.6,0,0,5.22,2.75,9.13,3.91,3.92,1.16,7.62,1.74,11.11,1.74,4.24,0,7.59-.58,10.04-1.74,2.45-1.16,3.68-2.93,3.68-5.31,0-1.52-.56-2.78-1.67-3.79-1.11-1.01-2.54-1.9-4.28-2.65s-3.65-1.44-5.72-2.05c-2.07-.61-4.07-1.29-5.99-2.05-3.08-1.16-5.8-2.41-8.15-3.75-2.35-1.34-4.32-2.89-5.91-4.66-1.59-1.77-2.8-3.81-3.64-6.14-.83-2.32-1.25-5.08-1.25-8.26,0-4.35.95-8.08,2.84-11.22,1.9-3.13,4.42-5.7,7.58-7.69,3.16-2,6.77-3.46,10.84-4.4,4.07-.93,8.3-1.4,12.7-1.4,3.44,0,6.92.27,10.46.8,3.54.53,7.56,1.56,7.56,1.56,1.6.41,2.91,2.1,2.91,3.75v12.5c0,1.65-1.21,2.4-2.69,1.67,0,0-3.59-1.77-7.05-2.65-3.46-.88-6.86-1.33-10.2-1.33-1.57,0-3.05.14-4.43.42-1.39.28-2.62.68-3.68,1.21s-1.9,1.21-2.5,2.05-.91,1.78-.91,2.84c0,1.42.45,2.63,1.36,3.64.91,1.01,2.1,1.88,3.56,2.62,1.46.73,3.09,1.39,4.89,1.97,1.79.58,2.5.82,2.5.82,1.56.53,4.1,1.44,5.64,2.03,0,0,3.26,1.25,5.84,2.56,2.58,1.31,4.79,2.86,6.63,4.62,1.84,1.77,3.26,3.84,4.24,6.22.99,2.38,1.48,5.21,1.48,8.49,0,4.6-1,8.53-2.99,11.79-2,3.26-4.65,5.91-7.96,7.96-3.31,2.05-7.13,3.54-11.45,4.47s-8.81,1.4-13.46,1.4c-8.54,0-20.82-3.19-20.82-3.19Z"/>
    <path class="cls-1" d="M420.94,218.13c0,1.65-1.35,3-3,3h-32.36c-1.65,0-3,1.35-3,3v20.68c0,1.65,1.35,3,3,3h29.25c1.65,0,3,1.35,3,3v13.86c0,1.65-1.35,3-3,3h-29.25c-1.65,0-3,1.35-3,3v36.22c0,1.65-1.35,3-3,3h-18.48c-1.65,0-3-1.35-3-3v-102.7c0-1.65,1.35-3,3-3h56.84c1.65,0,3,1.35,3,3v13.94Z"/>
    <path class="cls-1" d="M448.61,219.99c-4.04,0-7.35-1.2-9.93-3.6-2.58-2.4-3.87-5.34-3.87-8.83s1.29-6.52,3.87-8.79,5.89-3.41,9.93-3.41,7.42,1.14,9.97,3.41c2.55,2.27,3.83,5.21,3.83,8.79s-1.28,6.62-3.83,8.94c-2.55,2.32-5.87,3.49-9.97,3.49ZM460.44,306.89c0,1.65-1.35,3-3,3h-17.95c-1.65,0-3-1.35-3-3v-71.62c0-1.65,1.35-3,3-3h17.95c1.65,0,3,1.35,3,3v71.62Z"/>
    <path class="cls-1" d="M555.57,306.89c0,1.65-1.35,3-3,3h-17.88c-1.65,0-3-1.35-3-3v-37.13c0-1.65-.07-4.35-.16-6,0,0-.18-3.3-.86-5.73-.89-3.18-2.36-5.54-4.4-7.09s-4.44-2.22-7.46-2.22c-4.14,0-7.56,1.59-10.23,4.78-1.6,1.9-2.72,4.11-3.37,6.63-.43,1.69-.48,2.5-.48,2.5-.09,1.65-.17,4.35-.17,6v38.27c0,1.65-1.35,3-3,3h-17.95c-1.65,0-3-1.35-3-3v-71.62c0-1.65,1.35-3,3-3h17.95c1.65,0,3,1.35,3,3v6.28c0,1.65.07,3,.15,3s.96-1.08,1.94-2.41c0,0,3.65-4.9,7.1-7.22,4.51-3.03,9.86-4.55,16.05-4.55,9.22,0,15.96,3.07,20.23,9.2,2.18,3.14,3.72,7.07,4.61,11.81.62,3.27.8,7.97.8,7.97.07,1.65.12,4.35.12,6v41.53Z"/>
    <path class="cls-1" d="M625.39,194.98h20.95c1.65,0,3,1.35,3,3v108.92c0,1.65-1.35,3-3,3h-17.95c-1.65,0-3-1.35-3-3v-4.69c0-1.65-.07-3-.15-3s-.99,1.06-2.02,2.35c0,0-3.08,3.87-6.2,5.9-4.08,2.66-8.9,4.09-14.47,4.31-.49.02-.99.03-1.49.03-9.7,0-17.51-3.42-23.42-10.27-5.91-6.85-8.87-16.41-8.87-28.69s3.26-23.12,9.78-30.85,15.06-11.6,25.62-11.6c10.01,0,16.98,3.59,20.92,10.76M625.46,275.12c.22-1.64.39-4.29.39-5.89s-.21-4.25-.47-5.88c0,0-1-6.29-3.93-9.62-2.93-3.34-6.75-5-11.45-5-5.31,0-9.45,2.08-12.43,6.25-2.98,4.17-4.47,9.89-4.47,17.17,0,6.82,1.44,12.08,4.32,15.77,2.88,3.69,6.87,5.53,11.98,5.53s8.81-1.94,11.86-5.84c3.06-3.89,4.19-12.49,4.19-12.49Z"/>
    <path class="cls-1" d="M738.12,274.9c0,1.65-1.35,3-3,3h-44.64c-1.65,0-2.75,1.33-2.44,2.95,0,0,.86,4.51,2.82,7.12,1.4,1.87,3.23,3.35,5.49,4.45,3.26,1.59,7.4,2.39,12.43,2.39,8.54,0,19.76-4.87,19.76-4.87,1.51-.66,2.75.16,2.75,1.81v11.28c0,1.65-1.24,3.54-2.75,4.2,0,0-5.06,2.2-9.78,3.16s-9.77,1.41-15.44,1.41c-12.53,0-22.26-3.47-29.18-10.42-6.92-6.95-10.39-16.64-10.39-29.07s3.74-23.09,11.22-30.62c7.48-7.53,16.68-11.29,27.59-11.29s20.07,3.36,26.27,10.08c3.21,3.48,5.58,7.61,7.13,12.38,1.44,4.44,1.95,11.99,1.95,11.99.11,1.65.2,4.34.2,5.99v4.08ZM712.91,263.2c1.65,0,2.91-1.35,2.79-2.99,0,0-.25-3.52-1.16-5.93-.82-2.16-2-3.87-3.54-5.12-2.15-1.75-5.02-2.63-8.59-2.63-3.84,0-7.16,1.59-9.97,4.78s-4.35,9-4.35,9c-.42,1.59.58,2.9,2.23,2.9h22.58Z"/>
    <path class="cls-1" d="M801.88,250.87c0,1.65-1.26,2.52-2.81,1.94,0,0-3.43-1.29-7.27-1.29-5.21,0-9.27,1.91-12.2,5.72-2.93,3.82-4.03,12.6-4.03,12.6-.2,1.64-.37,4.33-.37,5.98v31.07c0,1.65-1.35,3-3,3h-17.95c-1.65,0-3-1.35-3-3v-71.62c0-1.65,1.35-3,3-3h17.95c1.65,0,3,1.35,3,3v8.4c0,1.65.07,3,.15,3s.73-1.22,1.44-2.71c0,0,2.54-5.36,5.29-7.94,3.65-3.41,8.28-5.12,13.89-5.12,2.53,0,3.02.13,3.02.13,1.59.43,2.9,2.13,2.9,3.78v16.06Z"/>
  </g>
</svg>